<?xml version="1.0" encoding="UTF-8"?>
<svg xmlns="http://www.w3.org/2000/svg" width="134" height="18" viewBox="0 0 134 18" fill="none">
  <path d="M70.7531 0L70.9851 0.0752892C71.2721 0.150009 71.5217 0.323042 71.6876 0.562687C71.854 0.802335 71.9256 1.09246 71.8895 1.37955C71.8926 1.66086 71.7904 1.93357 71.6019 2.14687C71.4134 2.36017 71.1521 2.49951 70.8663 2.53889C70.5873 2.59103 70.3009 2.59103 70.0218 2.53889C69.7262 2.49042 69.4606 2.33516 69.2771 2.10413C69.0941 1.87311 69.0072 1.58337 69.0341 1.29265C69.0231 1.00673 69.1186 0.726378 69.3015 0.502966C69.4851 0.279552 69.7446 0.127877 70.0334 0.0752892L70.1883 0.0288703L70.7531 0Z" fill="#171A1C"></path>
  <path d="M46.1807 14.4922C45.4391 14.4919 44.7052 14.348 44.0212 14.069C43.4721 13.8558 42.9736 13.5356 42.5562 13.1279C42.1388 12.7202 41.8112 12.2337 41.5937 11.6983C41.2909 11.0021 41.1443 10.2509 41.1638 9.49506C41.1833 8.73922 41.3684 7.99635 41.7068 7.31591C42.0429 6.61837 42.5612 6.01892 43.2095 5.57747C43.8578 5.13602 44.6134 4.8681 45.4013 4.80024C46.4597 4.63859 47.5436 4.79003 48.5128 5.23499C49.2288 5.55328 49.8469 6.04882 50.3051 6.67228C50.7634 7.29571 51.0459 8.0253 51.1246 8.7883C51.2895 9.75062 51.174 10.7386 50.7915 11.6402C50.4811 12.3923 49.9669 13.0481 49.3035 13.5372C48.6402 14.0263 47.8526 14.3303 47.0254 14.4169C46.7458 14.4632 46.4603 14.469 46.1807 14.4922ZM43.3608 9.61733V9.91285C43.3567 10.265 43.4253 10.6145 43.5627 10.9403C43.7001 11.2661 43.9033 11.5615 44.1603 11.8092C44.4173 12.0569 44.7229 12.2518 45.0588 12.3821C45.3947 12.5124 45.7539 12.5756 46.1153 12.5677C46.6502 12.6142 47.1866 12.4976 47.6503 12.2338C48.114 11.97 48.482 11.5721 48.7034 11.0953C48.9638 10.553 49.0707 9.95256 49.0127 9.35639C48.9235 7.92457 48.0726 6.83487 46.5912 6.67256C46.1077 6.5872 45.6099 6.63095 45.15 6.79937C44.6901 6.96777 44.2856 7.25447 43.9796 7.62899C43.5399 8.20026 43.3208 8.90433 43.3608 9.61733Z" fill="#171A1C"></path>
  <path d="M99.7694 14.4922C98.917 14.4875 98.0773 14.289 97.3179 13.9125C96.2953 13.4237 95.5095 12.5645 95.1283 11.5185C94.6173 10.2202 94.6473 8.77845 95.2121 7.50133C95.5248 6.75022 96.0456 6.09824 96.7151 5.6174C97.3852 5.13656 98.1783 4.84578 99.0075 4.77705C100.066 4.61754 101.149 4.76889 102.119 5.2118C102.834 5.53232 103.451 6.0293 103.908 6.65362C104.365 7.27791 104.646 8.00768 104.725 8.7708C104.901 9.80104 104.756 10.8593 104.308 11.8083C103.976 12.5136 103.461 13.1228 102.815 13.576C102.168 14.0292 101.412 14.3109 100.62 14.3937C100.34 14.4632 100.055 14.469 99.7694 14.4922ZM96.9611 9.62302V9.91878C96.9574 10.2705 97.0272 10.6191 97.1649 10.9443C97.3026 11.2694 97.5058 11.5641 97.7628 11.8112C98.0198 12.0583 98.3252 12.2528 98.6605 12.3827C98.9959 12.5126 99.3545 12.5756 99.7156 12.5678C100.25 12.6134 100.787 12.4964 101.25 12.2326C101.714 11.9689 102.081 11.5715 102.304 11.0954C102.564 10.5528 102.67 9.95256 102.613 9.35639C102.524 7.92457 101.673 6.83489 100.186 6.67257C99.7027 6.5864 99.2052 6.62974 98.7462 6.79825C98.2872 6.96675 97.884 7.25398 97.5798 7.62899C97.1459 8.20424 96.9348 8.91069 96.985 9.62302H96.9611Z" fill="#171A1C"></path>
  <path d="M122.155 14.4922C121.303 14.4881 120.463 14.2896 119.704 13.9125C118.68 13.4257 117.893 12.5658 117.514 11.5185C117.003 10.2205 117.032 8.77973 117.592 7.50133C117.907 6.75015 118.428 6.09842 119.099 5.61768C119.77 5.13694 120.564 4.84604 121.394 4.77705C122.452 4.61754 123.535 4.76889 124.505 5.2118C125.219 5.53328 125.835 6.03062 126.292 6.65475C126.75 7.27889 127.032 8.00804 127.111 8.7708C127.286 9.80165 127.138 10.8599 126.688 11.8083C126.358 12.5135 125.844 13.1227 125.198 13.576C124.553 14.0292 123.797 14.311 123.006 14.3937C122.726 14.4632 122.441 14.469 122.155 14.4922ZM122.155 12.5794C122.63 12.5989 123.102 12.4936 123.52 12.2742C123.939 12.055 124.289 11.7299 124.535 11.3332C124.916 10.6858 125.064 9.9331 124.957 9.19422C124.914 8.54596 124.643 7.93204 124.19 7.45519C123.892 7.15851 123.527 6.93273 123.124 6.79598C122.722 6.65923 122.293 6.61499 121.87 6.66663C121.368 6.6839 120.884 6.8443 120.476 7.12773C120.067 7.41113 119.754 7.80499 119.573 8.26072C119.348 8.81265 119.265 9.40938 119.329 9.99975C119.337 10.3519 119.418 10.6989 119.566 11.0204C119.714 11.3418 119.926 11.6314 120.191 11.8717C120.455 12.1121 120.766 12.2985 121.105 12.42C121.445 12.5415 121.806 12.5957 122.167 12.5794H122.155Z" fill="#171A1C"></path>
  <path d="M82.8101 8.07547L80.8291 8.57392C80.7343 8.34786 80.6627 8.12767 80.5611 7.93056C80.3861 7.58131 80.1205 7.28224 79.7912 7.06279C79.4614 6.84333 79.0795 6.71094 78.6817 6.6784C78.243 6.60104 77.792 6.62977 77.3679 6.76219C76.9432 6.8946 76.5588 7.12668 76.248 7.4378C75.8893 7.82053 75.6501 8.29505 75.5583 8.80573C75.4108 9.48177 75.45 10.1839 75.6709 10.8405C75.8447 11.3789 76.1996 11.8439 76.68 12.1598C77.1598 12.4757 77.735 12.6238 78.3127 12.5795C78.8812 12.6049 79.4406 12.4339 79.8922 12.0967C80.3438 11.7594 80.659 11.2775 80.7814 10.7361L80.8175 10.6608L82.8401 11.1652C82.7746 11.3623 82.7213 11.5418 82.6497 11.7157C82.3939 12.4214 81.9435 13.0445 81.3469 13.5162C80.7502 13.9877 80.0317 14.2897 79.2705 14.3882C78.12 14.6205 76.9223 14.4798 75.8612 13.988C75.2297 13.6905 74.6807 13.2501 74.2591 12.7035C73.838 12.157 73.5571 11.5201 73.4403 10.8462C73.108 9.503 73.3209 8.08661 74.0351 6.89295C74.3882 6.31368 74.8753 5.82318 75.4579 5.46076C76.0405 5.09833 76.7027 4.87402 77.3905 4.80608C78.4278 4.65224 79.4889 4.791 80.4485 5.20602C81.0403 5.45969 81.5641 5.84444 81.9772 6.32941C82.3903 6.81439 82.6816 7.3864 82.8278 8.0002C82.8248 8.0259 82.8192 8.05105 82.8101 8.07547Z" fill="#171A1C"></path>
  <path d="M69.418 5.00879H71.5121V14.2139H69.418V5.00879Z" fill="#171A1C"></path>
  <path d="M37.7809 6.78284H40.4638V4.99176H37.7689V3.0498H35.6152V6.78284V7.04949C35.6152 8.34214 35.6152 9.63474 35.6152 10.9275C35.6194 11.316 35.655 11.7037 35.7221 12.0868C35.7811 12.5184 35.9505 12.929 36.2145 13.2803C36.4785 13.6318 36.8288 13.913 37.2333 14.0984C38.1576 14.5149 39.2091 14.5769 40.1783 14.2722L39.6964 12.4983C39.3847 12.621 39.0414 12.6454 38.7148 12.568C38.5006 12.5244 38.3038 12.4213 38.1486 12.271C37.9934 12.1208 37.8862 11.93 37.8401 11.7217C37.7809 11.5061 37.7509 11.2839 37.7509 11.0607C37.7509 9.68694 37.7509 8.3132 37.7509 6.93937C37.7577 6.88668 37.7678 6.8344 37.7809 6.78284Z" fill="#171A1C"></path>
  <path d="M130.796 6.78284H133.491V4.99176H130.796V3.0498H128.643V6.78284V7.04949C128.643 8.34215 128.643 9.63474 128.643 10.9275C128.641 11.3163 128.677 11.7044 128.75 12.0868C128.806 12.5193 128.974 12.9308 129.239 13.2826C129.503 13.6345 129.855 13.9153 130.261 14.0984C131.183 14.515 132.232 14.577 133.2 14.2722L132.724 12.4983C132.412 12.621 132.069 12.6454 131.742 12.568C131.527 12.5248 131.33 12.4218 131.174 12.2716C131.017 12.1214 130.909 11.9305 130.862 11.7217C130.803 11.5061 130.772 11.2839 130.772 11.0607C130.772 9.68498 130.772 8.31124 130.772 6.93937C130.778 6.92198 130.79 6.864 130.796 6.78284Z" fill="#171A1C"></path>
  <path d="M67.4746 8.63709C67.4831 8.01533 67.3871 7.39663 67.1888 6.80553C67.0572 6.35621 66.8124 5.94628 66.4752 5.61393C66.138 5.28158 65.7207 5.0374 65.2611 4.90406C64.6326 4.72876 63.9711 4.69722 63.3279 4.8115C62.8114 4.87476 62.3175 5.05647 61.8873 5.34164C61.4572 5.62681 61.1027 6.00708 60.8527 6.45173L60.7874 6.5273C60.5523 5.98183 60.1514 5.51947 59.6387 5.20239C59.1261 4.88531 58.5262 4.72865 57.9196 4.75348C57.33 4.70776 56.7383 4.8145 56.2045 5.06284C55.6707 5.31119 55.2138 5.6923 54.8795 6.16784V5.0085H52.7734V14.2196H54.8856V12.3297C54.8856 11.1703 54.8856 10.011 54.8856 8.88646C54.9213 7.41989 55.8316 6.5677 57.2654 6.63147C57.6602 6.6232 58.045 6.75156 58.3521 6.99347C58.6592 7.23538 58.8686 7.57539 58.943 7.95327C59.0243 8.30711 59.0641 8.66879 59.0618 9.03137C59.0618 10.6893 59.0618 12.3412 59.0618 13.9991V14.2196H61.1859V11.6631C61.1859 10.7356 61.1859 9.81396 61.1859 8.88646C61.2335 7.41989 62.1376 6.56771 63.5659 6.64307C63.9496 6.63418 64.3242 6.75723 64.624 6.99035C64.9245 7.22351 65.1307 7.55195 65.2072 7.91845C65.2776 8.16795 65.3156 8.42492 65.3204 8.68353C65.3204 10.4515 65.3204 12.2195 65.3204 13.9874V14.2368H67.4446C67.4446 14.1846 67.4446 14.1442 67.4446 14.1094C67.4801 12.2719 67.4801 10.4514 67.4746 8.63709Z" fill="#171A1C"></path>
  <path d="M33.8411 8.91569C33.846 8.55328 33.8239 8.19124 33.7754 7.8319C33.7285 7.22367 33.502 6.64155 33.1229 6.15604C32.7439 5.67052 32.2288 5.30223 31.6397 5.09576C30.299 4.59568 28.8159 4.59568 27.4752 5.09576C26.9143 5.31346 26.4184 5.66488 26.0328 6.11754C25.6472 6.5702 25.3843 7.10978 25.268 7.68699L27.243 8.15061L27.3026 7.9825C27.3026 7.92455 27.3383 7.87235 27.3621 7.8144C27.4719 7.49648 27.6684 7.21387 27.9303 6.99638C28.1923 6.7789 28.5099 6.6348 28.8495 6.57975C29.3431 6.48177 29.8539 6.5036 30.3368 6.64344C30.6367 6.72237 30.9103 6.8763 31.1304 7.08977C31.3506 7.30328 31.5096 7.569 31.592 7.86078C31.7061 8.31566 31.7463 8.78497 31.7111 9.25196C31.2828 9.14181 30.8722 9.0144 30.4498 8.93325C29.3228 8.67598 28.1482 8.69196 27.029 8.97964C26.4207 9.11195 25.8783 9.44492 25.4934 9.9225C25.1084 10.4 24.9048 10.9927 24.917 11.5998C24.878 12.1247 25.006 12.6486 25.284 13.0999C25.5619 13.5512 25.976 13.908 26.4698 14.1214C26.9937 14.3558 27.5651 14.4726 28.1415 14.4633C29.2709 14.5163 30.3786 14.1496 31.2411 13.4373L31.8004 12.985V14.2023H33.853V13.9822C33.849 12.2895 33.8451 10.6006 33.8411 8.91569ZM31.6931 10.852C31.5622 12.0693 30.1047 12.846 28.7185 12.846C28.4413 12.8801 28.16 12.8447 27.9007 12.7433C27.6415 12.6418 27.4132 12.4778 27.2372 12.2663C27.0942 12.0739 27.0153 11.8431 27.0112 11.6055V11.5242C27.0112 11.0199 27.0112 10.2315 29.0935 10.2315H29.4386C30.1371 10.2154 30.8321 10.3317 31.4851 10.5738C31.5398 10.5868 31.5892 10.6148 31.6278 10.6547L31.6635 10.6838V10.7419C31.6787 10.777 31.6886 10.8141 31.6931 10.852Z" fill="#171A1C"></path>
  <path d="M115.802 8.22664C115.597 7.17798 115.007 6.23805 114.141 5.58332C113.664 5.22687 113.114 4.97429 112.528 4.84231C111.942 4.71033 111.334 4.7021 110.744 4.81825C110.279 4.87431 109.828 5.01957 109.42 5.24536C109.012 5.47116 108.653 5.77307 108.365 6.13412C108.341 6.15798 108.313 6.17765 108.282 6.19214V1.47949H106.182V14.2322H108.294V13.0148L108.359 13.0961C108.644 13.3942 108.954 13.6675 109.287 13.9132C109.778 14.2049 110.323 14.3973 110.891 14.4785C111.46 14.5596 112.039 14.528 112.595 14.3856C113.151 14.2432 113.671 13.9928 114.125 13.6497C114.578 13.3066 114.957 12.8778 115.236 12.3888C115.964 11.1228 116.166 9.63337 115.802 8.22664ZM113.565 10.8875C113.365 11.4518 112.965 11.9282 112.438 12.232C111.91 12.5357 111.289 12.6468 110.685 12.5453C110.03 12.5007 109.418 12.2098 108.978 11.7338C108.617 11.2941 108.399 10.7591 108.353 10.1977C108.353 10.0065 108.353 9.81494 108.317 9.6874C108.284 9.01546 108.458 8.34934 108.817 7.77464C109.075 7.3989 109.432 7.09818 109.851 6.90427C110.27 6.71037 110.735 6.63058 111.197 6.67331C111.761 6.6717 112.309 6.85476 112.754 7.19327C113.198 7.53175 113.513 8.0059 113.648 8.53966C113.889 9.30945 113.86 10.1358 113.565 10.8875Z" fill="#171A1C"></path>
  <path d="M94.3035 4.7708C93.6389 4.68756 92.9633 4.79331 92.3587 5.07507C91.7541 5.35683 91.2455 5.80274 90.8949 6.35923V5.01421H88.8301V14.2137H90.9426V10.5038C90.9426 10.0517 90.9426 9.59381 90.9426 9.13588C90.9383 8.79146 91.0087 8.44992 91.1488 8.1336C91.2883 7.81733 91.4946 7.53326 91.7541 7.29949C92.0135 7.06572 92.3207 6.88747 92.6555 6.77644C92.9902 6.6654 93.3446 6.62391 93.697 6.65473L94.0654 6.68954L94.3035 4.7708Z" fill="#171A1C"></path>
  <path d="M19.4626 12.5217L19.4208 12.4522C16.8776 9.14626 14.7916 5.52902 13.2158 1.69343C13.2088 1.66816 13.1966 1.64473 13.1801 1.62408L13.1383 1.54851C13.0827 1.44992 13.001 1.36788 12.9015 1.31076C12.8021 1.25363 12.6887 1.22379 12.5733 1.22414H7.53402C7.41842 1.22316 7.30478 1.25272 7.20521 1.30991C7.10559 1.36709 7.02407 1.44951 6.969 1.54851L6.92138 1.62408L6.88565 1.69343C5.31431 5.5299 3.22993 9.14742 0.686461 12.4522C0.670401 12.474 0.656273 12.4974 0.64463 12.5217C0.592039 12.616 0.564453 12.7215 0.564453 12.8289C0.564453 12.9362 0.592039 13.042 0.64463 13.1362L3.26258 17.6807C3.31942 17.7779 3.40149 17.8586 3.50078 17.9146C3.60007 17.9706 3.71286 18.0001 3.82759 17.9998H3.91677C8.00052 17.451 12.1422 17.451 16.226 17.9998H16.3093C16.4288 18.0041 16.5473 17.9767 16.6521 17.9205C16.7569 17.8643 16.844 17.7814 16.9043 17.6807L19.5219 13.1362C19.5656 13.0372 19.5831 12.9289 19.5727 12.8215C19.5623 12.7141 19.5246 12.6111 19.4626 12.5217ZM15.1136 13.8088C14.8932 14.1572 14.5994 14.4558 14.2518 14.6856C13.9041 14.9154 13.5105 15.071 13.0967 15.1419C11.0783 15.4742 9.017 15.4742 6.99861 15.1419C6.57853 15.0727 6.17864 14.9165 5.82591 14.6836C5.47319 14.4508 5.17583 14.1466 4.95413 13.7921C4.73244 13.4375 4.59142 13.0409 4.54076 12.6288C4.4901 12.2166 4.53092 11.7984 4.66044 11.4029C5.30431 9.40616 6.37505 7.565 7.80188 6.00047C8.08112 5.68721 8.4259 5.43614 8.81334 5.264C9.20083 5.09186 9.62187 5.00276 10.0477 5.00276C10.4735 5.00276 10.8945 5.09186 11.282 5.264C11.6694 5.43614 12.0143 5.68721 12.2935 6.00047C13.7207 7.56378 14.7896 9.40543 15.4288 11.4029C15.5577 11.8023 15.5962 12.2242 15.5418 12.6395C15.4874 13.0548 15.3414 13.4538 15.1136 13.8088Z" fill="#D24628"></path>
  <path d="M10.0304 12.6667C11.0721 12.6667 11.9164 11.8206 11.9164 10.777C11.9164 9.73331 11.0721 8.88721 10.0304 8.88721C8.98886 8.88721 8.14453 9.73331 8.14453 10.777C8.14453 11.8206 8.98886 12.6667 10.0304 12.6667Z" fill="#D24628"></path>
</svg>
