<?xml version="1.0" encoding="UTF-8"?>
<svg xmlns="http://www.w3.org/2000/svg" width="120" height="19" viewBox="0 0 120 19" fill="none">
  <path d="M0 0V19H18.5437V0H0ZM11.5852 16.2671H5.69852V10.2337H7.20503V14.7235H11.5852V16.2671ZM10.7202 12.7977C10.3879 12.7866 10.0661 12.6762 9.79422 12.4801C9.5224 12.2839 9.31246 12.0107 9.19026 11.6939C9.06806 11.3771 9.03893 11.0306 9.10645 10.697C9.17396 10.3635 9.33518 10.0575 9.57027 9.81659C9.80535 9.57572 10.104 9.41053 10.4296 9.34135C10.7551 9.27217 11.0933 9.30202 11.4025 9.42723C11.7116 9.55244 11.9784 9.76753 12.1698 10.0461C12.3612 10.3246 12.4689 10.6543 12.4798 10.9948C12.4864 11.2333 12.4455 11.4707 12.3595 11.6925C12.2735 11.9142 12.1442 12.1156 11.9796 12.2844C11.815 12.4532 11.6185 12.5857 11.4021 12.674C11.1857 12.7623 10.9541 12.8044 10.7213 12.7977H10.7202ZM15.8761 11.8677H14.3699L14.3681 7.38193H9.99193V5.83911L15.8761 5.83687V11.8677Z" fill="#0000FF"></path>
  <path d="M22.5815 2.79785H26.8174C28.0271 2.79785 28.9833 3.12971 29.6858 3.79342C30.3884 4.45714 30.7401 5.32685 30.7408 6.40256C30.7408 7.09137 30.5636 7.68613 30.2093 8.18683C29.8563 8.68678 29.3646 9.06629 28.7982 9.27596C29.5187 9.46407 30.09 9.85532 30.512 10.4497C30.934 11.0441 31.1438 11.7238 31.1413 12.4889C31.1413 13.5408 30.7686 14.4079 30.0231 15.0902C29.2776 15.7726 28.3123 16.1138 27.1274 16.1138H22.5801L22.5815 2.79785ZM24.3779 8.61995H26.6141C27.3225 8.61995 27.8845 8.42278 28.3002 8.02842C28.7159 7.63407 28.9236 7.12392 28.9234 6.49798C28.9234 5.85961 28.7096 5.35244 28.282 4.97648C27.8544 4.60052 27.274 4.41278 26.5406 4.41328H24.3779V8.61995ZM24.3779 14.498H26.8705C27.6034 14.498 28.193 14.3039 28.6392 13.9158C29.0855 13.5276 29.3085 13.0144 29.3082 12.376C29.3082 11.7125 29.1067 11.1836 28.7036 10.7893C28.3006 10.3949 27.714 10.1976 26.944 10.1974H24.3779V14.498Z" fill="#2B2B2B" stroke="#2B2B2B" stroke-width="0.104281" stroke-miterlimit="10"></path>
  <path d="M39.2753 12.7523L40.7599 13.2783C40.5126 14.1039 40.011 14.8254 39.3302 15.3346C38.6337 15.8664 37.7906 16.1324 36.8008 16.1326C35.5666 16.1326 34.5188 15.6978 33.6574 14.8281C32.796 13.9584 32.3652 12.7845 32.3652 11.3065C32.3652 9.92962 32.7807 8.79029 33.6116 7.88853C34.4424 6.98676 35.4323 6.53612 36.5811 6.53662C37.9126 6.53662 38.9512 6.96539 39.6969 7.82293C40.4427 8.68046 40.8154 9.8291 40.8152 11.2688C40.8176 11.4574 40.8055 11.6458 40.7788 11.8324H34.1434C34.1553 12.6338 34.4149 13.2911 34.9223 13.8042C35.4296 14.3173 36.0558 14.5746 36.8008 14.5761C38.0593 14.5761 38.8841 13.9682 39.2753 12.7523ZM34.1994 10.4049H39.0203C38.996 9.72871 38.7761 9.17471 38.3604 8.74283C37.9447 8.31096 37.358 8.09502 36.6004 8.09502C35.9158 8.09502 35.3537 8.32351 34.9143 8.78048C34.4748 9.23745 34.2365 9.77891 34.1994 10.4049Z" fill="#2B2B2B" stroke="#2B2B2B" stroke-width="0.104281" stroke-miterlimit="10"></path>
  <path d="M49.7811 4.50609H45.4372V16.1123H43.6408V4.50609H39.2969V2.79785H49.7811V4.50609Z" fill="#2B2B2B" stroke="#2B2B2B" stroke-width="0.104281" stroke-miterlimit="10"></path>
  <path d="M49.2958 7.93495C50.1446 7.02772 51.223 6.57398 52.5309 6.57373C53.8389 6.57348 54.9172 7.02722 55.7661 7.93495C56.6149 8.84293 57.0393 9.98598 57.0393 11.3641C57.0393 12.7537 56.6178 13.9023 55.7748 14.81C54.9318 15.7178 53.8504 16.1716 52.5306 16.1716C51.2108 16.1716 50.1294 15.7178 49.2864 14.81C48.4434 13.9023 48.0217 12.7537 48.0215 11.3641C48.0217 9.98598 48.4465 8.84293 49.2958 7.93495ZM50.5789 13.738C51.1102 14.3096 51.7609 14.5945 52.5309 14.5927C53.3009 14.591 53.9516 14.3061 54.483 13.738C55.0146 13.169 55.2804 12.3772 55.2804 11.3626C55.2804 10.3612 55.0146 9.57548 54.483 9.00545C53.9514 8.43541 53.3007 8.15064 52.5309 8.15114C51.7612 8.15114 51.1105 8.43591 50.5789 9.00545C50.0473 9.57498 49.7815 10.3607 49.7815 11.3626C49.7815 12.3764 50.0473 13.1683 50.5789 13.738Z" fill="#2B2B2B" stroke="#2B2B2B" stroke-width="0.104281" stroke-miterlimit="10"></path>
  <path d="M60.1656 16.1124H58.4609V7.07884H60.1103V8.2809C60.3745 7.80973 60.7703 7.4304 61.2468 7.19177C61.724 6.94405 62.2517 6.81532 62.7867 6.81606C63.3406 6.81069 63.8856 6.96003 64.3629 7.24806C64.8395 7.5363 65.1938 7.96197 65.4259 8.52504C66.0368 7.38597 67.0205 6.81631 68.3769 6.81606C69.2202 6.81606 69.938 7.11027 70.5305 7.69869C71.123 8.28711 71.4194 9.13844 71.4196 10.2527V16.112H69.7149V10.439C69.7149 9.81333 69.5591 9.31263 69.2475 8.93691C68.9358 8.5612 68.4685 8.37334 67.8454 8.37334C67.2464 8.37334 66.7576 8.58928 66.379 9.02115C66.0005 9.45302 65.811 9.99461 65.8108 10.6459V16.1124H64.0879V10.439C64.0879 9.81333 63.9321 9.31263 63.6205 8.93691C63.3088 8.5612 62.8414 8.37334 62.2181 8.37334C61.6072 8.37334 61.1123 8.58617 60.7335 9.01183C60.3547 9.43749 60.1654 9.98839 60.1656 10.6645V16.1124Z" fill="#2B2B2B" stroke="#2B2B2B" stroke-width="0.104281" stroke-miterlimit="10"></path>
  <path d="M74.2454 7.93495C75.0942 7.02772 76.1726 6.57398 77.4805 6.57373C78.7884 6.57348 79.8667 7.02722 80.7153 7.93495C81.5641 8.84293 81.9885 9.98598 81.9885 11.3641C81.9885 12.7537 81.567 13.9023 80.724 14.81C79.881 15.7178 78.7996 16.1716 77.4798 16.1716C76.16 16.1716 75.0786 15.7178 74.2356 14.81C73.3926 13.9023 72.9709 12.7537 72.9707 11.3641C72.9712 9.98598 73.3961 8.84293 74.2454 7.93495ZM75.5295 13.738C76.0612 14.3096 76.7118 14.5945 77.4816 14.5927C78.2514 14.591 78.9021 14.3061 79.4337 13.738C79.965 13.169 80.2307 12.3772 80.2307 11.3626C80.2307 10.3612 79.965 9.57548 79.4337 9.00545C78.9023 8.43541 78.2516 8.15064 77.4816 8.15114C76.7118 8.15114 76.0612 8.43591 75.5295 9.00545C74.9979 9.57498 74.7321 10.3607 74.7321 11.3626C74.7314 12.3764 74.9972 13.1683 75.5295 13.738Z" fill="#2B2B2B" stroke="#2B2B2B" stroke-width="0.104281" stroke-miterlimit="10"></path>
  <path d="M89.0826 6.98464V8.86285C88.8337 8.82584 88.5825 8.80703 88.331 8.80656C86.718 8.80656 85.9115 9.73305 85.9115 11.586V16.1121H84.1875V7.07857H85.8736V8.65635C86.4113 7.5046 87.2912 6.92873 88.5132 6.92873C88.7043 6.92803 88.8951 6.94675 89.0826 6.98464Z" fill="#2B2B2B" stroke="#2B2B2B" stroke-width="0.104281" stroke-miterlimit="10"></path>
  <path d="M95.8096 6.98464V8.86284C95.5608 8.82583 95.3098 8.80702 95.0584 8.80656C93.4454 8.80656 92.6389 9.73305 92.6389 11.586V16.1121H90.916V7.07857H92.6022V8.65635C93.1398 7.5046 94.0197 6.92873 95.2418 6.92873C95.4324 6.92808 95.6226 6.94681 95.8096 6.98464Z" fill="#2B2B2B" stroke="#2B2B2B" stroke-width="0.104281" stroke-miterlimit="10"></path>
  <path d="M97.7766 7.93495C98.6255 7.02772 99.7038 6.57398 101.012 6.57373C102.32 6.57348 103.398 7.02722 104.247 7.93495C105.095 8.84293 105.52 9.98598 105.52 11.3641C105.52 12.7537 105.098 13.9023 104.255 14.81C103.412 15.7178 102.331 16.1716 101.011 16.1716C99.6912 16.1716 98.6098 15.7178 97.7668 14.81C96.9238 13.9023 96.5022 12.7537 96.502 11.3641C96.5024 9.98598 96.9273 8.84293 97.7766 7.93495ZM99.0597 13.738C99.5911 14.3096 100.242 14.5945 101.012 14.5927C101.782 14.591 102.432 14.3061 102.964 13.738C103.495 13.169 103.761 12.3772 103.761 11.3626C103.761 10.3612 103.495 9.57548 102.964 9.00545C102.432 8.43541 101.782 8.15064 101.012 8.15114C100.242 8.15114 99.5913 8.43591 99.0597 9.00545C98.5281 9.57498 98.2624 10.3607 98.2627 11.3626C98.2627 12.3764 98.5283 13.1683 99.0597 13.738Z" fill="#2B2B2B" stroke="#2B2B2B" stroke-width="0.104281" stroke-miterlimit="10"></path>
  <path d="M112.508 7.07861H114.286L116.578 13.8773L118.52 7.07861H120.335L117.474 16.1122H115.697L113.35 9.23823L111.058 16.1122H109.243L106.348 7.07861H108.235L110.215 13.8773L112.508 7.07861Z" fill="#2B2B2B" stroke="#2B2B2B" stroke-width="0.104281" stroke-miterlimit="10"></path>
  <path d="M77.4953 7.72046C77.6534 7.72046 77.7816 7.64553 77.7816 7.5531C77.7816 7.46067 77.6534 7.38574 77.4953 7.38574C77.3372 7.38574 77.209 7.46067 77.209 7.5531C77.209 7.64553 77.3372 7.72046 77.4953 7.72046Z" fill="#2B2B2B" stroke="#2B2B2B" stroke-width="0.104281" stroke-miterlimit="10"></path>
</svg>
