<?xml version="1.0" encoding="UTF-8"?>
<svg xmlns="http://www.w3.org/2000/svg" width="62" height="40" viewBox="0 0 62 40" fill="none">
  <path d="M5.36041 35.9735H4.58998C4.56034 35.7839 4.5052 35.6171 4.42453 35.473C4.34387 35.3289 4.24509 35.2066 4.12821 35.1062C4.01133 35.0057 3.88045 34.9299 3.73558 34.8787C3.59236 34.8275 3.44008 34.8019 3.27875 34.8019C2.98737 34.8019 2.72644 34.8863 2.49597 35.055C2.26714 35.2237 2.08605 35.4711 1.95271 35.7972C1.82101 36.1232 1.75516 36.5213 1.75516 36.9915C1.75516 37.4654 1.82101 37.8654 1.95271 38.1915C2.08605 38.5175 2.26796 38.764 2.49844 38.9308C2.72891 39.0976 2.98819 39.181 3.27628 39.181C3.43597 39.181 3.58742 39.1564 3.73064 39.1071C3.87551 39.0559 4.00639 38.981 4.12327 38.8825C4.24015 38.7839 4.33893 38.6635 4.41959 38.5213C4.5019 38.3773 4.5587 38.2123 4.58998 38.0265L5.36041 38.0294C5.31926 38.3156 5.23942 38.5791 5.12089 38.8199C5.00401 39.0588 4.85337 39.2654 4.669 39.4398C4.48626 39.6123 4.27719 39.746 4.04178 39.8408C3.80637 39.9355 3.54956 39.9829 3.27134 39.9829C2.83344 39.9829 2.44329 39.8635 2.10087 39.6246C1.75845 39.3839 1.48847 39.0398 1.29092 38.5924C1.09502 38.145 0.99707 37.6114 0.99707 36.9915C0.99707 36.3697 1.09584 35.836 1.29339 35.3905C1.49094 34.9431 1.76092 34.6 2.10334 34.3611C2.44576 34.1204 2.83509 34 3.27134 34C3.53968 34 3.78991 34.0445 4.02203 34.1336C4.25579 34.2209 4.46569 34.3498 4.65171 34.5204C4.83774 34.6891 4.99166 34.8957 5.11348 35.1403C5.2353 35.3829 5.31761 35.6607 5.36041 35.9735Z" fill="url(#paint0_linear_628_1597)"></path>
  <path d="M10.5274 36.9915C10.5274 37.6133 10.4286 38.1479 10.231 38.5953C10.0335 39.0408 9.76268 39.3839 9.41862 39.6246C9.0762 39.8635 8.68687 39.9829 8.25062 39.9829C7.81272 39.9829 7.42174 39.8635 7.07768 39.6246C6.73526 39.3839 6.46528 39.0398 6.26773 38.5924C6.07018 38.145 5.97141 37.6114 5.97141 36.9915C5.97141 36.3697 6.07018 35.836 6.26773 35.3905C6.46528 34.9431 6.73526 34.6 7.07768 34.3611C7.42174 34.1204 7.81272 34 8.25062 34C8.68687 34 9.0762 34.1204 9.41862 34.3611C9.76268 34.6 10.0335 34.9431 10.231 35.3905C10.4286 35.836 10.5274 36.3697 10.5274 36.9915ZM9.77174 36.9915C9.77174 36.5175 9.70507 36.1185 9.57172 35.7943C9.44002 35.4682 9.25894 35.2218 9.02846 35.055C8.79964 34.8863 8.54036 34.8019 8.25062 34.8019C7.95923 34.8019 7.69913 34.8863 7.4703 35.055C7.24148 35.2218 7.06039 35.4682 6.92705 35.7943C6.79535 36.1185 6.7295 36.5175 6.7295 36.9915C6.7295 37.4654 6.79535 37.8654 6.92705 38.1915C7.06039 38.5156 7.24148 38.7621 7.4703 38.9308C7.69913 39.0976 7.95923 39.181 8.25062 39.181C8.54036 39.181 8.79964 39.0976 9.02846 38.9308C9.25894 38.7621 9.44002 38.5156 9.57172 38.1915C9.70507 37.8654 9.77174 37.4654 9.77174 36.9915Z" fill="url(#paint1_linear_628_1597)"></path>
  <path d="M15.4214 34.0796V39.9033H14.7201L12.1496 35.6322H12.1026V39.9033H11.3396V34.0796H12.0458L14.6189 38.3564H14.6658V34.0796H15.4214Z" fill="url(#paint2_linear_628_1597)"></path>
  <path d="M19.1537 35.6095C19.1274 35.3403 19.0187 35.1318 18.8277 34.9839C18.6368 34.8341 18.3964 34.7592 18.1067 34.7592C17.8993 34.7592 17.7198 34.7972 17.5684 34.873C17.4169 34.9469 17.2992 35.0493 17.2153 35.1801C17.1329 35.309 17.0918 35.4559 17.0918 35.6209C17.0918 35.7592 17.1198 35.8787 17.1757 35.9791C17.2334 36.0796 17.3083 36.164 17.4005 36.2322C17.4943 36.2986 17.5947 36.3545 17.7017 36.4C17.8087 36.4436 17.9116 36.4796 18.0104 36.5081L18.5043 36.6559C18.6656 36.7014 18.831 36.763 19.0006 36.8408C19.1702 36.9185 19.3274 37.0209 19.4722 37.1479C19.6171 37.2749 19.734 37.4322 19.8229 37.6199C19.9134 37.8076 19.9587 38.0322 19.9587 38.2938C19.9587 38.6237 19.8846 38.9166 19.7365 39.1725C19.5899 39.4284 19.3768 39.6303 19.0969 39.7782C18.8187 39.9261 18.482 40 18.0869 40C17.7083 40 17.3807 39.9308 17.1041 39.7924C16.8276 39.654 16.6111 39.4578 16.4547 39.2038C16.2983 38.9479 16.2119 38.6446 16.1954 38.2938H16.9609C16.9757 38.5043 17.035 38.6796 17.1387 38.8199C17.2441 38.9583 17.3782 39.0616 17.5412 39.1299C17.7058 39.1962 17.8861 39.2294 18.082 39.2294C18.2977 39.2294 18.4894 39.1905 18.6574 39.1128C18.8269 39.0332 18.9603 38.9232 19.0574 38.7829C19.1545 38.6408 19.2031 38.4749 19.2031 38.2853C19.2031 38.1128 19.1603 37.9716 19.0747 37.8616C18.9907 37.7517 18.8763 37.6607 18.7314 37.5886C18.5882 37.5166 18.4261 37.4531 18.245 37.3981L17.6474 37.2104C17.2424 37.0834 16.9214 36.8967 16.6843 36.6502C16.4489 36.4038 16.3312 36.0777 16.3312 35.672C16.3312 35.3365 16.4102 35.0436 16.5683 34.7934C16.7263 34.5431 16.9403 34.3488 17.2103 34.2104C17.4803 34.0701 17.7849 34 18.124 34C18.4664 34 18.7685 34.0692 19.0302 34.2076C19.2936 34.346 19.5011 34.5365 19.6525 34.7791C19.804 35.0199 19.883 35.2967 19.8896 35.6095H19.1537Z" fill="url(#paint3_linear_628_1597)"></path>
  <path d="M23.9836 34.0796H24.7491V37.91C24.7491 38.3175 24.6659 38.6787 24.4997 38.9934C24.3334 39.3062 24.0996 39.5526 23.7984 39.7327C23.4971 39.9109 23.144 40 22.739 40C22.3357 40 21.9834 39.9109 21.6821 39.7327C21.3809 39.5526 21.1471 39.3062 20.9808 38.9934C20.8146 38.6787 20.7314 38.3175 20.7314 37.91V34.0796H21.4945V37.8389C21.4945 38.1024 21.5447 38.3365 21.6451 38.5412C21.7472 38.746 21.8912 38.9071 22.0772 39.0246C22.2633 39.1403 22.4839 39.1981 22.739 39.1981C22.9958 39.1981 23.2173 39.1403 23.4033 39.0246C23.5909 38.9071 23.7342 38.746 23.8329 38.5412C23.9334 38.3365 23.9836 38.1024 23.9836 37.8389V34.0796Z" fill="url(#paint4_linear_628_1597)"></path>
  <path d="M25.7194 39.9033V34.0796H26.4824V39.1469H28.7739V39.9033H25.7194Z" fill="url(#paint5_linear_628_1597)"></path>
  <path d="M28.5972 34.836V34.0796H32.5111V34.836H30.9332V39.9033H30.1727V34.836H28.5972Z" fill="url(#paint6_linear_628_1597)"></path>
  <path d="M34 34.0796V39.9033H33.237V34.0796H34Z" fill="url(#paint7_linear_628_1597)"></path>
  <path d="M39.054 34.0796V39.9033H38.3527L35.7821 35.6322H35.7351V39.9033H34.9721V34.0796H35.6783L38.2514 38.3564H38.2983V34.0796H39.054Z" fill="url(#paint8_linear_628_1597)"></path>
  <path d="M43.4505 35.9194C43.4027 35.7469 43.3385 35.5924 43.2579 35.4559C43.1788 35.3175 43.0842 35.2 42.9739 35.1033C42.8636 35.0047 42.7376 34.9299 42.5961 34.8787C42.4561 34.8275 42.3022 34.8019 42.1343 34.8019C41.8495 34.8019 41.5927 34.8863 41.3639 35.055C41.135 35.2237 40.9539 35.4711 40.8206 35.7972C40.6889 36.1213 40.6231 36.5185 40.6231 36.9886C40.6231 37.4607 40.6897 37.8597 40.8231 38.1858C40.9564 38.5118 41.1391 38.7592 41.3713 38.928C41.6034 39.0967 41.8676 39.181 42.1639 39.181C42.4388 39.181 42.6784 39.1166 42.8825 38.9877C43.0883 38.8588 43.2472 38.6768 43.3591 38.4417C43.4727 38.2047 43.5295 37.9261 43.5295 37.6057L43.727 37.6483H42.28V36.9232H44.2678V37.5858C44.2678 38.0749 44.1773 38.4995 43.9962 38.8597C43.8168 39.218 43.5682 39.4948 43.2504 39.69C42.9344 39.8853 42.5722 39.9829 42.1639 39.9829C41.7063 39.9829 41.3046 39.8616 40.9589 39.619C40.6148 39.3763 40.3465 39.0322 40.1539 38.5867C39.9613 38.1393 39.865 37.6085 39.865 36.9943C39.865 36.5299 39.9209 36.1128 40.0329 35.7431C40.1448 35.3735 40.302 35.0597 40.5045 34.8019C40.7087 34.5422 40.9482 34.3441 41.2231 34.2076C41.4997 34.0692 41.8018 34 42.1294 34C42.4026 34 42.657 34.0464 42.8924 34.1393C43.1294 34.2322 43.3402 34.364 43.5245 34.5346C43.7106 34.7052 43.8645 34.9081 43.9863 35.1431C44.1081 35.3763 44.1904 35.6351 44.2332 35.9194H43.4505Z" fill="url(#paint9_linear_628_1597)"></path>
  <path d="M46.0876 39.9033L44.685 34.0796H45.4875L46.4728 38.5896H46.5197L47.5445 34.0796H48.3396L49.3644 38.5924H49.4113L50.3941 34.0796H51.1991L49.794 39.9033H49.0261L47.9618 35.5412H47.9223L46.858 39.9033H46.0876Z" fill="url(#paint10_linear_628_1597)"></path>
  <path d="M51.7558 39.9033V34.0796H52.5188V36.6104H55.04V34.0796H55.8055V39.9033H55.04V37.364H52.5188V39.9033H51.7558Z" fill="url(#paint11_linear_628_1597)"></path>
  <path d="M57.5407 34.0796V39.9033H56.7776V34.0796H57.5407Z" fill="url(#paint12_linear_628_1597)"></path>
  <path d="M58.3819 39.9033V39.3175L61.0414 34.836H58.3597V34.0796H61.9748V34.6654L59.3154 39.1469H61.9971V39.9033H58.3819Z" fill="url(#paint13_linear_628_1597)"></path>
  <path d="M25.6519 3.37396C23.4146 1.56146 20.7065 0.424988 17.8458 0.0980024C14.9851 -0.228983 12.0904 0.267098 9.50183 1.52799C6.91322 2.78887 4.73814 4.76221 3.23203 7.21625C1.72591 9.6703 0.9513 12.5031 0.999161 15.3821C1.04702 18.2611 1.91537 21.0666 3.50222 23.4692C5.08907 25.8718 7.32854 27.7718 9.95763 28.9459C12.5867 30.1201 15.4962 30.5197 18.3445 30.0978C21.1928 29.6759 23.8616 28.45 26.0374 26.5642L21.758 21.6268C20.5218 22.6983 19.0055 23.3948 17.3872 23.6345C15.7689 23.8742 14.1158 23.6472 12.622 22.98C11.1282 22.3129 9.85583 21.2334 8.95423 19.8683C8.05263 18.5033 7.55926 16.9092 7.53207 15.2735C7.50488 13.6378 7.94499 12.0282 8.80072 10.6339C9.65644 9.23961 10.8923 8.11842 12.363 7.40202C13.8338 6.68562 15.4784 6.40377 17.1038 6.58955C18.7292 6.77533 20.2678 7.42104 21.539 8.45084L25.6519 3.37396Z" fill="url(#paint14_linear_628_1597)"></path>
  <path d="M37.5566 1.4835L43.7868 0.00012207L56.3956 24.7726L52.3904 30.1127L37.5566 1.4835Z" fill="url(#paint15_linear_628_1597)"></path>
  <path d="M26.9941 1.4835L33.2243 0.00012207L45.8331 24.7726L41.8279 30.1127L26.9941 1.4835Z" fill="url(#paint16_linear_628_1597)"></path>
  <path d="M54.9221 12.4604L61.894 5.17964e-05H47.9502L54.9221 12.4604Z" fill="url(#paint17_linear_628_1597)"></path>
  <defs>
    <linearGradient id="paint0_linear_628_1597" x1="0.498167" y1="36.7194" x2="60.264" y2="34.3833" gradientUnits="userSpaceOnUse">
      <stop stop-color="#6F99B4"></stop>
      <stop offset="1" stop-color="#6E9898"></stop>
    </linearGradient>
    <linearGradient id="paint1_linear_628_1597" x1="0.498167" y1="36.7194" x2="60.264" y2="34.3833" gradientUnits="userSpaceOnUse">
      <stop stop-color="#6F99B4"></stop>
      <stop offset="1" stop-color="#6E9898"></stop>
    </linearGradient>
    <linearGradient id="paint2_linear_628_1597" x1="0.498167" y1="36.7194" x2="60.264" y2="34.3833" gradientUnits="userSpaceOnUse">
      <stop stop-color="#6F99B4"></stop>
      <stop offset="1" stop-color="#6E9898"></stop>
    </linearGradient>
    <linearGradient id="paint3_linear_628_1597" x1="0.498167" y1="36.7194" x2="60.264" y2="34.3833" gradientUnits="userSpaceOnUse">
      <stop stop-color="#6F99B4"></stop>
      <stop offset="1" stop-color="#6E9898"></stop>
    </linearGradient>
    <linearGradient id="paint4_linear_628_1597" x1="0.498167" y1="36.7194" x2="60.264" y2="34.3833" gradientUnits="userSpaceOnUse">
      <stop stop-color="#6F99B4"></stop>
      <stop offset="1" stop-color="#6E9898"></stop>
    </linearGradient>
    <linearGradient id="paint5_linear_628_1597" x1="0.498167" y1="36.7194" x2="60.264" y2="34.3833" gradientUnits="userSpaceOnUse">
      <stop stop-color="#6F99B4"></stop>
      <stop offset="1" stop-color="#6E9898"></stop>
    </linearGradient>
    <linearGradient id="paint6_linear_628_1597" x1="0.498167" y1="36.7194" x2="60.264" y2="34.3833" gradientUnits="userSpaceOnUse">
      <stop stop-color="#6F99B4"></stop>
      <stop offset="1" stop-color="#6E9898"></stop>
    </linearGradient>
    <linearGradient id="paint7_linear_628_1597" x1="0.498167" y1="36.7194" x2="60.264" y2="34.3833" gradientUnits="userSpaceOnUse">
      <stop stop-color="#6F99B4"></stop>
      <stop offset="1" stop-color="#6E9898"></stop>
    </linearGradient>
    <linearGradient id="paint8_linear_628_1597" x1="0.498167" y1="36.7194" x2="60.264" y2="34.3833" gradientUnits="userSpaceOnUse">
      <stop stop-color="#6F99B4"></stop>
      <stop offset="1" stop-color="#6E9898"></stop>
    </linearGradient>
    <linearGradient id="paint9_linear_628_1597" x1="0.498167" y1="36.7194" x2="60.264" y2="34.3833" gradientUnits="userSpaceOnUse">
      <stop stop-color="#6F99B4"></stop>
      <stop offset="1" stop-color="#6E9898"></stop>
    </linearGradient>
    <linearGradient id="paint10_linear_628_1597" x1="0.498167" y1="36.7194" x2="60.264" y2="34.3833" gradientUnits="userSpaceOnUse">
      <stop stop-color="#6F99B4"></stop>
      <stop offset="1" stop-color="#6E9898"></stop>
    </linearGradient>
    <linearGradient id="paint11_linear_628_1597" x1="0.498167" y1="36.7194" x2="60.264" y2="34.3833" gradientUnits="userSpaceOnUse">
      <stop stop-color="#6F99B4"></stop>
      <stop offset="1" stop-color="#6E9898"></stop>
    </linearGradient>
    <linearGradient id="paint12_linear_628_1597" x1="0.498167" y1="36.7194" x2="60.264" y2="34.3833" gradientUnits="userSpaceOnUse">
      <stop stop-color="#6F99B4"></stop>
      <stop offset="1" stop-color="#6E9898"></stop>
    </linearGradient>
    <linearGradient id="paint13_linear_628_1597" x1="0.498167" y1="36.7194" x2="60.264" y2="34.3833" gradientUnits="userSpaceOnUse">
      <stop stop-color="#6F99B4"></stop>
      <stop offset="1" stop-color="#6E9898"></stop>
    </linearGradient>
    <linearGradient id="paint14_linear_628_1597" x1="1.14049" y1="14.5887" x2="29.4687" y2="14.4036" gradientUnits="userSpaceOnUse">
      <stop stop-color="#6F99B4"></stop>
      <stop offset="1" stop-color="#6E9898"></stop>
    </linearGradient>
    <linearGradient id="paint15_linear_628_1597" x1="44.5757" y1="15.0434" x2="49.8804" y2="12.4168" gradientUnits="userSpaceOnUse">
      <stop stop-color="#6F99B4"></stop>
      <stop offset="1" stop-color="#6E9898"></stop>
    </linearGradient>
    <linearGradient id="paint16_linear_628_1597" x1="34.0132" y1="15.0434" x2="39.3179" y2="12.4168" gradientUnits="userSpaceOnUse">
      <stop stop-color="#6F99B4"></stop>
      <stop offset="1" stop-color="#6E9898"></stop>
    </linearGradient>
    <linearGradient id="paint17_linear_628_1597" x1="48.0163" y1="6.59641" x2="61.0693" y2="6.69417" gradientUnits="userSpaceOnUse">
      <stop stop-color="#6F99B4"></stop>
      <stop offset="1" stop-color="#6E9898"></stop>
    </linearGradient>
  </defs>
</svg>
