<?xml version="1.0" encoding="UTF-8"?>
<svg xmlns="http://www.w3.org/2000/svg" width="94" height="23" viewBox="0 0 94 23" fill="none">
  <path fill-rule="evenodd" clip-rule="evenodd" d="M14.0221 5.36035H13.5735C11.8975 5.36035 10.67 6.61192 10.0799 7.45437C9.77296 6.05838 8.75786 5.36035 7.10545 5.36035H6.65691C4.88654 5.36035 3.8242 6.5879 3.25764 7.38213V5.36035H0V18.3579H3.25764V9.16328C3.89499 8.77818 4.81563 8.29687 6.06673 8.29687H6.3973C6.72782 8.29687 6.91658 8.48934 6.91658 8.82628V18.3579H10.1742V9.16328C10.8116 8.77818 11.7323 8.29687 12.9834 8.29687H13.3139C13.6444 8.29687 13.8333 8.48934 13.8333 8.82628V18.3579H17.0909V8.48934C17.0909 6.44342 16.0286 5.36035 14.0221 5.36035Z" fill="black"></path>
  <path fill-rule="evenodd" clip-rule="evenodd" d="M23.9343 15.5176H22.9555C22.6041 15.5176 22.4034 15.325 22.4034 14.9881V13.3755C22.4034 13.0385 22.6041 12.8459 22.9555 12.8459H26.9208V14.6512C26.2432 15.0363 25.2644 15.5176 23.9343 15.5176ZM30.3842 18.3579V8.48934C30.3842 6.44342 29.2549 5.36035 27.1216 5.36035H22.7045C20.5713 5.36035 19.442 6.44342 19.442 8.48934V9.37994H22.8551V8.68192C22.8551 8.34497 23.0559 8.15239 23.4073 8.15239H26.3687C26.72 8.15239 26.9208 8.34497 26.9208 8.68192V10.8963C25.4903 10.5834 24.361 10.4631 23.2567 10.4631H22.5037C20.3705 10.4631 18.9902 11.7869 18.9902 13.8328V15.2288C18.9902 17.2748 20.1195 18.3579 22.2528 18.3579H23.3068C25.1891 18.3579 26.3185 17.1303 26.9208 16.336V18.3579H30.3842Z" fill="black"></path>
  <path fill-rule="evenodd" clip-rule="evenodd" d="M32.2832 3.50345H36.0812V0.718262H32.2832V3.50345Z" fill="black"></path>
  <path fill-rule="evenodd" clip-rule="evenodd" d="M31.7871 19.129C31.7871 19.4229 31.5931 19.5945 31.3507 19.7169L29.4355 20.746V22.9999L31.9809 22.4609C33.9688 22.0444 35.1325 21.383 35.1325 19.3005V5.36035H31.7871V19.129Z" fill="black"></path>
  <path fill-rule="evenodd" clip-rule="evenodd" d="M44.9057 10.5593H40.5469V8.58565C40.5469 8.24865 40.7508 8.05607 41.1077 8.05607H44.3449C44.7017 8.05607 44.9057 8.24865 44.9057 8.58565V10.5593ZM45.1096 5.36035H40.343C38.1763 5.36035 37.0293 6.44342 37.0293 8.48934V15.2288C37.0293 17.2748 38.1763 18.3579 40.343 18.3579H45.1096C47.2763 18.3579 48.4232 17.2748 48.4232 15.2288V14.1217H44.9057V15.1326C44.9057 15.4695 44.7017 15.6621 44.3449 15.6621H41.1077C40.7508 15.6621 40.5469 15.4695 40.5469 15.1326V12.7978H48.4232V8.48934C48.4232 6.44342 47.2763 5.36035 45.1096 5.36035Z" fill="black"></path>
  <path fill-rule="evenodd" clip-rule="evenodd" d="M57.7255 10.7278L53.8328 10.1501C53.1625 10.0539 53.0594 9.86131 53.0594 9.42804V8.48934C53.0594 8.15239 53.2656 7.95987 53.6266 7.95987H56.359C56.7199 7.95987 56.9262 8.15239 56.9262 8.48934V9.40402H60.4321V8.48934C60.4321 6.44342 59.2722 5.36035 57.0807 5.36035H52.9048C50.7136 5.36035 49.5535 6.44342 49.5535 8.48934V9.95757C49.5535 11.6665 50.4816 12.4367 52.5954 12.7497L56.4879 13.3273C57.1583 13.4237 57.2616 13.6161 57.2616 14.0494V15.2288C57.2616 15.5658 57.0551 15.7583 56.6942 15.7583H53.4461C53.0852 15.7583 52.8789 15.5658 52.8789 15.2288V14.0976H49.373V15.2288C49.373 17.2748 50.5331 18.3579 52.7243 18.3579H57.4162C59.6071 18.3579 60.767 17.2748 60.767 15.2288V13.5199C60.767 11.8109 59.8393 11.0408 57.7255 10.7278Z" fill="black"></path>
  <path fill-rule="evenodd" clip-rule="evenodd" d="M66.571 1.64648H63.5597V5.46619H61.7168V8.23543H63.5144V15.2541C63.5144 17.2833 64.5709 18.3576 66.4362 18.3576H69.3128V15.6361H67.1102C66.7959 15.6361 66.6163 15.4451 66.6163 15.1108V8.23543H69.3128V5.46619H66.571V1.64648Z" fill="black"></path>
  <path fill-rule="evenodd" clip-rule="evenodd" d="M76.5055 15.0376L73.816 5.36035H70.2617L74.8248 18.59L73.4317 22.9999H76.6256L82.6052 5.36035H79.1955L76.5055 15.0376Z" fill="black"></path>
  <path fill-rule="evenodd" clip-rule="evenodd" d="M89.283 11.8194L93.7503 5.65734H90.0563L86.5876 10.4552H85.9996V0.718262H82.6055V18.3578H85.9996V13.1835H86.5379L90.1811 18.3578H93.9994L89.283 11.8194Z" fill="black"></path>
</svg>
