<?xml version="1.0" encoding="UTF-8"?>
<svg xmlns="http://www.w3.org/2000/svg" width="100" height="18" viewBox="0 0 100 18" fill="none">
  <path d="M36.0705 11.1217C38.8692 11.1217 40.7057 9.49428 40.7057 6.32743C40.7057 3.02865 39.1972 1.5332 36.0488 1.5332H29.9922V16.4878H32.8346V11.1217H36.0705ZM32.8346 8.70256V3.95231H36.3548C37.4043 3.95231 37.754 4.37016 37.754 5.35978V7.20711C37.754 8.19675 37.3387 8.70256 36.3548 8.70256H32.8346ZM45.5012 1.5332H42.7683V16.4878H45.5012V10.0001C45.5012 8.37268 46.3977 7.25109 47.9064 7.25109C49.2182 7.25109 49.7211 8.02081 49.7211 9.34032V16.4878H52.4541V9.1424C52.4541 6.56935 51.2954 5.00792 48.8027 5.00792C47.2285 5.00792 46.179 5.71166 45.5012 6.89923V1.5332ZM58.0246 16.4878V5.27182H55.2915V16.4878H58.0246ZM58.0684 1.5332H55.2477V3.9743H58.0684V1.5332ZM64.8527 7.40503H67.6294V5.27182H64.8527V1.5332H62.1197V5.27182H59.9113V7.40503H62.1197V16.4878H67.6294V14.3545H64.8527V7.40503ZM76.5464 16.4878H79.2795V5.27182H76.5464V11.7594C76.5464 13.3868 75.6281 14.5084 74.1632 14.5084C72.8732 14.5084 72.414 13.7167 72.414 12.4192V5.27182H69.681V12.6171C69.681 15.2122 70.8835 16.7516 73.2667 16.7516C74.8409 16.7516 75.8686 16.0698 76.5464 14.8603V16.4878ZM82.2068 16.4878H84.94V7.42703H88.4382V5.27182H82.2068V16.4878ZM92.328 9.23036C92.328 8.02081 93.2682 7.14113 94.5145 7.14113C95.7607 7.14113 96.7009 8.02081 96.7009 9.23036V9.62622H92.328V9.23036ZM89.4856 10.8578C89.4856 14.3765 91.3442 16.7516 94.5145 16.7516C97.2039 16.7516 99.0623 15.3001 99.4121 12.8151H96.6791C96.5479 13.9586 95.7169 14.6184 94.5364 14.6184C93.3557 14.6184 92.328 13.8487 92.328 12.5072V11.7594H99.4996V10.3739C99.4996 7.29507 97.5317 5.00792 94.5145 5.00792C91.4972 5.00792 89.4856 7.33907 89.4856 10.8578Z" fill="#171A1C"></path>
  <path d="M9.65572 11.124L6.1582 14.5618L9.65572 17.9997L13.1533 14.5618L9.65572 11.124Z" fill="#28EF8F"></path>
  <path d="M0.5 9.0012L3.99815 12.4385L9.65755 6.87572L15.3169 12.4385L18.814 9.0012L9.65755 0L0.5 9.0012Z" fill="#28EF8F"></path>
</svg>
