<?xml version="1.0" encoding="UTF-8"?>
<svg xmlns="http://www.w3.org/2000/svg" width="106" height="40" viewBox="0 0 106 40" fill="none">
  <g clip-path="url(#clip0_628_1650)">
    <path fill-rule="evenodd" clip-rule="evenodd" d="M35.1917 10.0774V29.927L33.8909 30.6734L29.5547 30.3558L29.8598 28.4184L31.2089 27.6483V12.3561L35.1917 10.0774Z" fill="url(#paint0_linear_628_1650)"></path>
    <path fill-rule="evenodd" clip-rule="evenodd" d="M17.8448 0.151611L0.5 10.0764V29.926L17.8448 39.8509L18.2382 37.4927L17.8448 35.2934L4.48287 27.6473V12.3552L17.8448 4.70909L31.2066 12.3552L33.5675 12.2043L35.1895 10.0764L17.8448 0.151611Z" fill="#3EC7F4"></path>
    <path fill-rule="evenodd" clip-rule="evenodd" d="M17.8438 35.2951L22.8384 32.4368L26.8213 34.7155L17.8438 39.8526V35.2951Z" fill="url(#paint1_linear_628_1650)"></path>
    <path d="M15.987 17.6808H21.7044C23.0614 17.6808 24.1696 18.7845 24.1696 20.1422C24.1696 20.8488 23.8644 21.492 23.3746 21.9445L27.5984 24.3741C28.4496 23.1752 28.9555 21.7143 28.9555 20.1422C28.9555 16.1088 25.6471 12.8137 21.608 12.8137H7.52344L15.987 17.6808Z" fill="#002846"></path>
    <path fill-rule="evenodd" clip-rule="evenodd" d="M20.0097 22.7766H10.4219L29.0514 33.4398L33.8935 30.6688L20.0097 22.7766Z" fill="url(#paint2_linear_628_1650)"></path>
    <path d="M47.0846 15.9042V17.3016C47.3576 16.5473 47.5584 16.2377 47.984 15.9439C48.3855 15.6581 48.9476 15.4993 49.4856 15.4993H49.8228V18.969C49.5739 18.9452 49.325 18.9213 49.1965 18.9213C48.4337 18.9213 47.7832 19.231 47.4219 19.7471C47.1489 20.1044 47.0846 20.4776 47.0846 21.343V26.1863H43.6719V15.9042H47.0846Z" fill="#002846"></path>
    <path d="M59.7726 15.9039H63.1854V26.194H59.7726V25.0427C58.8251 26.1067 57.725 26.5989 56.2475 26.5989C53.2844 26.5989 51.1484 24.3519 51.1484 21.1998C51.1484 17.9127 53.4209 15.5149 56.5446 15.5149C57.8695 15.5149 58.7689 15.9357 59.7807 17.0235V15.9039H59.7726ZM54.786 21.1284C54.786 22.7084 55.862 23.9311 57.2593 23.9311C58.6725 23.9311 59.8208 22.6449 59.8208 21.0887C59.8208 19.4451 58.7609 18.3097 57.2833 18.3097C55.8139 18.3018 54.786 19.4848 54.786 21.1284Z" fill="#002846"></path>
    <path d="M68.4987 15.9041V16.8807C69.3097 15.9279 70.2974 15.5071 71.7348 15.5071C72.7224 15.5071 73.686 15.7532 74.5212 16.2217C76.2717 17.2221 77.1951 18.9133 77.1951 21.1285C77.1951 24.4791 75.1314 26.5911 71.8472 26.5911C70.4339 26.5911 69.3338 26.1703 68.4987 25.3049V30.7198H65.0859V15.9041H68.4987ZM68.4987 21.1682C68.4987 22.8356 69.4623 23.9233 70.9478 23.9233C72.4494 23.9233 73.5576 22.772 73.5576 21.192C73.5576 19.5246 72.4976 18.3019 71.0602 18.3019C69.5506 18.3019 68.4987 19.4849 68.4987 21.1682Z" fill="#002846"></path>
    <path d="M82.0846 15.9041V16.8807C82.8956 15.9279 83.8833 15.5071 85.3207 15.5071C86.3084 15.5071 87.272 15.7532 88.1071 16.2217C89.8576 17.2221 90.7811 18.9133 90.7811 21.1285C90.7811 24.4791 88.7174 26.5911 85.4331 26.5911C84.0198 26.5911 82.9197 26.1703 82.0846 25.3049V30.7198H78.6719V15.9041H82.0846ZM82.0846 21.1682C82.0846 22.8356 83.0482 23.9233 84.5338 23.9233C86.0354 23.9233 87.1435 22.772 87.1435 21.192C87.1435 19.5246 86.0835 18.3019 84.6462 18.3019C83.1446 18.3019 82.0846 19.4849 82.0846 21.1682Z" fill="#002846"></path>
    <path d="M96.2694 22.7246C96.2694 23.2169 96.446 23.344 97.1045 23.3916H97.4658V26.1944H94.84C93.3786 26.1467 92.8406 25.5512 92.8646 24.0585V18.6356H91.8047V15.8329H92.8646V13.3H96.2774V15.8329H97.4658V18.6356H96.2774V22.7246H96.2694Z" fill="#002846"></path>
    <path d="M102.756 15.9042V17.3016C103.03 16.5473 103.23 16.2377 103.656 15.9439C104.057 15.6581 104.619 15.4993 105.157 15.4993H105.495V18.969C105.246 18.9452 104.997 18.9213 104.868 18.9213C104.106 18.9213 103.455 19.231 103.094 19.7471C102.821 20.1044 102.756 20.4776 102.756 21.343V26.1863H99.3438V15.9042H102.756Z" fill="#002846"></path>
  </g>
  <defs>
    <linearGradient id="paint0_linear_628_1650" x1="37.9726" y1="11.239" x2="31.0979" y2="25.8398" gradientUnits="userSpaceOnUse">
      <stop offset="0.3764" stop-color="#3EC7F4"></stop>
      <stop offset="1" stop-color="#389BCA"></stop>
    </linearGradient>
    <linearGradient id="paint1_linear_628_1650" x1="17.5521" y1="38.194" x2="24.9759" y2="33.1324" gradientUnits="userSpaceOnUse">
      <stop offset="0.2259" stop-color="#3EC7F4"></stop>
      <stop offset="1" stop-color="#389BCA"></stop>
    </linearGradient>
    <linearGradient id="paint2_linear_628_1650" x1="18.374" y1="20.9841" x2="26.6048" y2="33.7427" gradientUnits="userSpaceOnUse">
      <stop stop-color="#002846"></stop>
      <stop offset="0.5314" stop-color="#002643"></stop>
      <stop offset="0.935" stop-color="#002039"></stop>
      <stop offset="1" stop-color="#001E37"></stop>
    </linearGradient>
    <clipPath id="clip0_628_1650">
      <rect width="105" height="39.6992" fill="white" transform="translate(0.5 0.151611)"></rect>
    </clipPath>
  </defs>
</svg>
