<?xml version="1.0" encoding="UTF-8"?>
<svg xmlns="http://www.w3.org/2000/svg" width="84" height="32" viewBox="0 0 84 32" fill="none">
  <path d="M16.4321 8C12.6259 8 9.09766 11.1563 9.09766 15.9227C9.09766 21.0286 12.7189 24 16.8041 24C20.4253 24 22.8075 21.8644 23.613 19.2336L20.58 18.2745C20.0847 19.7602 18.971 20.9053 16.8041 20.9053C14.6372 20.9053 12.7806 19.265 12.6886 16.9748H23.706C23.7373 16.9132 23.799 16.4179 23.799 15.8297C23.7979 11.0633 21.0741 8 16.4321 8ZM12.7806 14.344C12.9038 12.735 14.2036 11.0017 16.4635 11.0017C18.9396 11.0017 20.115 12.5804 20.1767 14.344H12.7806Z" fill="#171A1C"></path>
  <path d="M32.7437 20.7193C30.4848 20.7193 28.5352 19.0174 28.5352 15.9843C28.5352 12.9513 30.4848 11.311 32.682 11.311C34.8792 11.311 35.993 12.7967 36.3336 14.1277L39.5526 12.9513C38.933 10.5378 36.7055 8 32.6517 8C28.319 8 24.9453 11.3423 24.9453 15.9843C24.9453 20.6264 28.319 24 32.7437 24C36.7045 24 38.9644 21.4319 39.6759 19.079L36.5196 17.9339C36.179 19.079 35.0955 20.7193 32.7437 20.7193Z" fill="#171A1C"></path>
  <path d="M54.2383 8.46484H50.6484V17.378C50.6484 19.3589 49.565 20.7516 47.4921 20.7516C45.4192 20.7516 44.4591 19.173 44.4591 17.3164V8.46484H40.8691V17.9662C40.8691 21.3085 42.9734 23.9696 46.5633 23.9696C48.3269 23.9696 50.0916 23.2268 50.8344 21.8654C50.8344 22.485 50.896 23.1965 50.9577 23.536H54.393C54.3313 22.9791 54.2383 22.02 54.2383 20.7819V8.46484Z" fill="#171A1C"></path>
  <path d="M67.0532 9.33872C67.0532 9.33872 66.3897 8.65856 65.0702 8.37124C65.0702 8.37124 65.066 8.37019 65.0639 8.37019C65.0628 8.37019 65.0618 8.37019 65.0608 8.37019C64.9009 8.33885 64.5363 8.2793 64.111 8.2793C62.1301 8.2793 60.4595 9.23842 59.7469 10.8787V8.46423H56.25V23.5364H59.8399V16.3566C59.8399 13.5398 61.1093 11.9309 63.8937 11.9309C64.2646 11.9309 64.6658 11.9612 65.067 12.0228C65.0932 12.027 65.1443 12.0364 65.2029 12.05C65.2029 12.05 65.4275 11.4555 66.0512 10.5225C66.5339 9.79947 67.0532 9.33767 67.0532 9.33767V9.33872Z" fill="#171A1C"></path>
  <path d="M10.8032 9.33781C10.8032 9.33781 10.1397 8.65765 8.82016 8.37033C8.82016 8.37033 8.81598 8.37033 8.81494 8.36929H8.81076C8.65195 8.3369 8.28732 8.27734 7.86104 8.27734C5.88011 8.27734 4.20948 9.23647 3.49798 10.8768V8.46332H0V23.5345H3.58992V16.3547C3.58992 13.5379 4.8583 11.9289 7.64372 11.9289C8.01463 11.9289 8.41583 11.9592 8.81807 12.0208C8.84419 12.025 8.89539 12.0344 8.95285 12.048C8.95285 12.048 9.17748 11.4535 9.80123 10.5205C10.2839 9.79857 10.8032 9.33677 10.8032 9.33677V9.33781Z" fill="#171A1C"></path>
  <path d="M75.7312 15.3334L74.3218 16.8578L78.7141 20.6514L83.5828 17.352L82.3636 15.6907L80.8329 16.5203C80.8423 16.3427 80.8497 16.1651 80.8497 15.9833C80.8507 11.3736 77.5398 8 73.021 8C68.5023 8 65.2227 11.3736 65.2227 15.9843C65.2227 20.595 68.5336 24 73.021 24C75.166 24 77.0393 23.2394 78.4142 21.9449L75.8179 19.708C75.0594 20.4195 74.0669 20.782 73.02 20.782C70.8228 20.782 68.8115 19.1114 68.8115 15.9854C68.8115 12.8593 70.8228 11.2504 73.02 11.2504C75.2172 11.2504 77.2284 12.8593 77.2284 15.9854C77.2284 16.1212 77.2242 16.2539 77.2169 16.3845L75.7302 15.3345L75.7312 15.3334Z" fill="#171A1C"></path>
</svg>
