<?xml version="1.0" encoding="UTF-8"?>
<svg xmlns="http://www.w3.org/2000/svg" width="131" height="34" viewBox="0 0 131 34" fill="none">
  <path fill-rule="evenodd" clip-rule="evenodd" d="M8.15229 0.240435C8.56775 0.23188 9.00051 0.29176 9.32076 0.385857C9.58907 0.471399 10.0218 0.668147 10.2815 0.830677C10.5412 0.993208 10.9133 1.30971 11.1037 1.52357C11.3028 1.73743 11.5538 2.08815 11.8914 2.71261L28.4576 2.75538L28.7259 3.01201C28.8731 3.14888 29.0375 3.42261 29.0808 3.61081C29.1327 3.799 29.1501 4.14972 29.1241 4.38069C29.0895 4.62021 28.9856 4.93671 28.8731 5.09924C28.7692 5.26177 28.5961 5.42431 28.4836 5.46708C28.3797 5.50129 24.606 5.53551 11.8914 5.53551L11.675 5.93756C11.5538 6.15997 11.2422 6.57057 10.9826 6.84431C10.6537 7.18648 10.3161 7.44311 9.90066 7.63985C9.5631 7.80239 9.04379 7.97347 8.7322 8.0248C8.31674 8.10178 8.01381 8.10178 7.56373 8.0248C7.22617 7.97347 6.70685 7.80238 6.39526 7.65696C6.08367 7.51154 5.6336 7.19503 5.39125 6.95552C5.1489 6.716 4.82865 6.29684 4.40454 5.53551H1.02898L0.752008 5.29599C0.604867 5.16768 0.431761 4.93671 0.362519 4.78274C0.301932 4.63732 0.25 4.33792 0.25 4.12406C0.25 3.9102 0.301932 3.61081 0.371174 3.45683C0.431761 3.31141 0.596212 3.089 0.717386 2.96924C0.951079 2.75538 0.977045 2.75538 4.44782 2.6955L4.63824 2.30201C4.7421 2.0796 5.03638 1.6861 5.29604 1.42947C5.54704 1.17285 5.98846 0.839232 6.27409 0.685255C6.55106 0.531279 6.94055 0.377302 7.13096 0.334531C7.32138 0.283206 7.78011 0.248989 8.14363 0.240435H8.15229ZM6.89727 2.54153C6.72417 2.66129 6.49047 2.90936 6.3693 3.09755C6.23947 3.28574 6.11829 3.5937 6.09233 3.78189C6.06636 3.97008 6.06636 4.29515 6.10964 4.509C6.14426 4.72286 6.2914 5.06503 6.43854 5.27888C6.61742 5.52981 6.86554 5.73511 7.1829 5.89479C7.54642 6.08298 7.78011 6.14286 8.15229 6.13431C8.42926 6.13431 8.78413 6.08298 8.93127 6.0231C9.08706 5.95467 9.35538 5.79214 9.51983 5.64672C9.68428 5.50985 9.91797 5.18479 10.0305 4.92816C10.1863 4.57744 10.2209 4.35503 10.2036 3.98719C10.1776 3.64502 10.0997 3.39695 9.90066 3.089C9.75352 2.84948 9.47655 2.56719 9.25151 2.43032C8.96589 2.25068 8.7322 2.18225 8.30809 2.15658C7.97053 2.13092 7.63297 2.15658 7.47718 2.22502C7.33004 2.27634 7.07038 2.42177 6.89727 2.54153ZM96.2027 9.89817C96.3498 9.89817 96.6181 9.97516 96.8085 10.0693C96.999 10.1548 97.224 10.3515 97.3192 10.5141C97.449 10.7365 97.4663 10.8562 97.4058 11.0958C97.3365 11.361 97.2413 11.4379 96.6787 11.7117C96.3238 11.8913 95.8651 12.1993 95.6574 12.396C95.4583 12.6013 95.2679 12.8323 95.2506 12.9178C95.2246 12.9948 95.3198 13.2429 95.467 13.4738C95.6055 13.6963 95.8045 14.1069 95.9084 14.3892C96.0642 14.8083 96.1075 15.1505 96.1334 16.2711C96.1681 17.2719 96.1421 17.8023 96.0469 18.2386C95.9776 18.5636 95.7872 19.1025 95.6314 19.4276C95.467 19.7612 95.1034 20.2659 94.8092 20.5824C94.5235 20.8904 94.0388 21.301 93.7273 21.4977C93.4243 21.6859 92.9569 21.9254 92.6973 22.0366C92.4376 22.1393 91.875 22.2847 91.4423 22.3617C90.9056 22.4472 90.4036 22.4729 89.841 22.4472C89.3823 22.413 88.7505 22.3104 88.4129 22.2077C87.859 22.0366 87.7897 22.0366 87.5906 22.1564C87.4695 22.2248 87.305 22.4216 87.2271 22.5927C87.1406 22.7638 87.0886 23.0033 87.1146 23.1401C87.1406 23.2685 87.2444 23.4566 87.3483 23.5593C87.4608 23.6705 87.7984 23.8501 88.11 23.9613C88.4216 24.0726 89.1053 24.2265 89.6246 24.3035C90.144 24.372 91.1393 24.5088 91.8317 24.6029C92.5242 24.7056 93.3984 24.8595 93.7792 24.9622C94.16 25.0563 94.688 25.2445 94.9477 25.3642C95.2073 25.4926 95.6487 25.8005 95.9257 26.0657C96.246 26.3565 96.5316 26.7244 96.6874 27.0494C96.8258 27.3403 96.973 27.8279 97.0249 28.1871C97.0855 28.5977 97.0855 29.0084 97.0249 29.4275C96.973 29.821 96.8258 30.2573 96.6441 30.6422C96.4623 31.01 96.1594 31.4121 95.8824 31.6858C95.6314 31.9253 95.19 32.2675 94.9044 32.4386C94.6187 32.6097 94.0388 32.8578 93.6061 32.9861C93.1733 33.1229 92.4117 33.294 91.901 33.371C91.3817 33.448 90.7152 33.5079 90.4036 33.5079C90.092 33.5079 89.3996 33.448 88.8716 33.371C88.335 33.3026 87.5647 33.1315 87.1579 33.0032C86.7511 32.8749 86.1712 32.6354 85.8596 32.4643C85.548 32.2932 85.1066 31.9852 84.8642 31.7799C84.6305 31.5661 84.3103 31.2068 84.1545 30.9758C83.9987 30.7449 83.8083 30.3086 83.7304 30.0006C83.6352 29.6328 83.6006 29.2564 83.6352 28.8886C83.6525 28.5806 83.765 28.1016 83.8775 27.8193C83.99 27.537 84.2237 27.1264 84.4055 26.904C84.5873 26.673 85.02 26.3138 85.3662 26.0914C85.7038 25.8689 86.0067 25.6722 86.0327 25.6551C86.0587 25.638 85.9981 25.5781 85.9029 25.5268C85.8077 25.4754 85.5393 25.2616 85.3143 25.0477C85.0114 24.7569 84.8642 24.543 84.769 24.2265C84.6998 23.987 84.6478 23.6363 84.6478 23.431C84.6478 23.2342 84.7257 22.8664 84.8123 22.6269C84.9075 22.3788 85.1499 21.9939 85.3576 21.78C85.5653 21.5662 85.825 21.3266 86.1625 21.1128L85.6519 20.5739C85.3662 20.2745 85.0287 19.804 84.8988 19.5217C84.7604 19.2394 84.5873 18.7604 84.5094 18.4524C84.3968 18.0076 84.3795 17.597 84.4055 16.3566C84.4401 14.9879 84.4747 14.7484 84.6652 14.2181C84.7777 13.893 85.0287 13.3883 85.2191 13.1146C85.4009 12.8323 85.7903 12.396 86.076 12.1479C86.3616 11.8913 86.8636 11.5491 87.2012 11.3866C87.5387 11.2326 88.0407 11.0359 88.3263 10.9589C88.612 10.8905 89.2957 10.8049 89.841 10.7793C90.5854 10.745 91.0268 10.7707 91.5721 10.8734C92.0395 10.9675 92.6107 11.1642 94.0042 11.8229L94.16 11.5235C94.2466 11.3609 94.4716 11.0359 94.662 10.7964C94.8784 10.5226 95.164 10.2831 95.467 10.1291C95.7266 10.0008 96.0555 9.89817 96.2027 9.89817V9.89817ZM88.3523 13.2857C88.1446 13.4311 87.859 13.7561 87.7032 14.0128C87.5474 14.2694 87.3656 14.7057 87.2877 14.9879C87.2012 15.313 87.1579 15.8776 87.1579 16.5534C87.1579 17.1265 87.2012 17.8023 87.2531 18.0418C87.305 18.2899 87.4435 18.6748 87.556 18.9058C87.6685 19.1282 87.9109 19.4618 88.0927 19.6586C88.2658 19.8468 88.6293 20.1119 88.8889 20.2317C89.3131 20.437 89.4688 20.4627 90.2738 20.4627C91.096 20.4627 91.2259 20.437 91.6413 20.2317C91.8837 20.0948 92.2472 19.8296 92.4463 19.6329C92.6367 19.4276 92.8877 19.0769 93.0089 18.8374C93.1214 18.6064 93.2512 18.1958 93.3031 17.9392C93.3551 17.6825 93.3897 17.0837 93.3897 16.6133C93.3897 16.1428 93.3551 15.544 93.3031 15.2873C93.2512 15.0307 93.1127 14.603 92.9829 14.3464C92.8531 14.0898 92.5761 13.7048 92.3597 13.491C92.1087 13.2514 91.7712 13.029 91.4682 12.9093C91.0787 12.7638 90.7931 12.7211 90.2132 12.7296C89.7112 12.7296 89.3304 12.781 89.088 12.8751C88.8803 12.952 88.5514 13.1402 88.3523 13.2857ZM87.5906 26.8099C87.4262 26.904 87.1319 27.1606 86.9502 27.3574C86.7597 27.5627 86.552 27.8621 86.4914 28.0161C86.4308 28.1615 86.3789 28.5464 86.3789 28.8715C86.3789 29.2564 86.4308 29.5558 86.5434 29.7868C86.6386 29.975 86.8896 30.2915 87.106 30.4968C87.3223 30.6935 87.6599 30.9331 87.8503 31.0272C88.0407 31.1213 88.4389 31.2667 88.7418 31.3437C89.1053 31.4463 89.616 31.4891 90.3603 31.4891C91.148 31.4891 91.5807 31.4463 91.9616 31.3351C92.2472 31.2496 92.6713 31.0785 92.905 30.9587C93.1387 30.8304 93.4849 30.5481 93.684 30.3343C93.8831 30.1204 94.0908 29.7953 94.1427 29.6071C94.2033 29.4275 94.2552 29.0511 94.2552 28.7859C94.2552 28.5122 94.2033 28.1615 94.1427 28.0161C94.0735 27.8621 93.8744 27.6055 93.684 27.4429C93.5022 27.2804 93.156 27.058 92.9137 26.9468C92.6021 26.8099 92.0222 26.6902 90.8797 26.5362C89.9968 26.425 89.1832 26.3052 89.0534 26.2881C88.9322 26.2624 88.6206 26.3309 88.361 26.4335C88.11 26.5447 87.7551 26.7073 87.5906 26.8099V26.8099ZM21.2218 10.5055C21.6373 10.497 22.0873 10.5569 22.3903 10.6509C22.6672 10.7365 23.1 10.9332 23.3597 11.0958C23.6193 11.2583 24.0001 11.5919 24.2165 11.8229C24.4329 12.0624 24.6839 12.4131 24.9695 12.9691L28.4663 13.0205L28.7346 13.2771C28.8817 13.4225 29.0462 13.6877 29.0895 13.8759C29.1414 14.0641 29.1587 14.4148 29.1327 14.6458C29.0981 14.8853 29.0029 15.1847 28.9164 15.3301C28.8212 15.4755 28.648 15.6381 28.5269 15.698C28.3711 15.7664 27.7912 15.8006 24.9695 15.8006L24.7358 16.254C24.606 16.4935 24.2771 16.9127 24.0001 17.1778C23.6886 17.4772 23.2644 17.7766 22.8923 17.9477C22.3556 18.2043 22.1825 18.2386 21.4209 18.2642C20.7111 18.2899 20.4601 18.2642 20.0101 18.1188C19.7158 18.0162 19.3176 17.8451 19.1272 17.7253C18.9368 17.6055 18.6079 17.3404 18.3915 17.1265C18.1751 16.9127 17.8808 16.5277 17.4827 15.8006H9.34672C4.12757 15.8006 1.13284 15.7664 0.994356 15.7151C0.873182 15.6637 0.67411 15.4841 0.535625 15.313C0.371174 15.0906 0.293277 14.8682 0.267311 14.5688C0.25 14.3293 0.275966 13.9957 0.327898 13.8331C0.388485 13.6706 0.54428 13.4225 0.959735 13.0205L17.526 12.9691L17.6991 12.6099C17.7943 12.4131 18.0886 12.0282 18.3482 11.7544C18.6079 11.4722 18.9974 11.1556 19.2138 11.0273C19.4301 10.9076 19.8196 10.7365 20.0793 10.6595C20.3563 10.5654 20.841 10.5055 21.2218 10.5055V10.5055ZM19.8369 12.9093C19.6725 13.0632 19.4648 13.3455 19.3609 13.5337C19.2397 13.7647 19.1791 14.0384 19.1791 14.3892C19.1705 14.8083 19.2224 14.9879 19.4388 15.3729C19.6292 15.698 19.8369 15.9204 20.1226 16.1C20.4428 16.2967 20.6765 16.3652 21.066 16.3908C21.3603 16.408 21.7498 16.3737 21.9402 16.3053C22.1306 16.2454 22.4422 16.0572 22.624 15.8947C22.8144 15.7236 23.0308 15.4328 23.1173 15.2446C23.2125 15.0393 23.2818 14.7057 23.2818 14.3892C23.2818 14.0299 23.2212 13.7647 23.0827 13.4995C22.9788 13.2857 22.7538 13.0034 22.5807 12.8579C22.4076 12.7125 22.1133 12.5414 21.9315 12.4901C21.7498 12.4302 21.4209 12.3789 21.2045 12.3875C20.9881 12.3875 20.6592 12.4388 20.4688 12.5072C20.2784 12.5757 19.9927 12.7638 19.8369 12.9093V12.9093ZM123.787 10.7622C124.211 10.7536 124.852 10.8135 125.215 10.8905C125.587 10.9675 126.185 11.1556 126.54 11.3182C126.894 11.4807 127.474 11.84 127.829 12.1052C128.184 12.3704 128.677 12.8408 128.92 13.1488C129.171 13.4567 129.491 13.9187 129.638 14.1753C129.785 14.4319 129.984 14.9195 130.097 15.2446C130.27 15.7835 130.287 16.0658 130.322 18.0675C130.348 19.5217 130.331 20.5311 130.261 20.9759C130.209 21.3523 130.062 21.9083 129.941 22.2163C129.82 22.5242 129.578 22.9862 129.413 23.2428C129.249 23.4994 128.972 23.8844 128.799 24.0811C128.625 24.2864 128.193 24.6885 127.838 24.9793C127.483 25.2616 126.877 25.638 126.496 25.8262C126.115 26.0058 125.527 26.2111 125.198 26.2795C124.869 26.348 124.263 26.4079 123.856 26.4079C123.45 26.4079 122.844 26.348 122.515 26.2795C122.186 26.2111 121.563 25.9801 121.13 25.7748C120.697 25.561 120.1 25.1846 119.797 24.9365C119.494 24.6885 119.053 24.2522 118.819 23.9699C118.585 23.6876 118.239 23.1487 118.057 22.7723C117.867 22.3959 117.642 21.8399 117.564 21.5319C117.434 21.0615 117.408 20.591 117.408 18.538C117.408 16.4849 117.434 16.0145 117.564 15.544C117.642 15.236 117.876 14.6629 118.075 14.2608C118.369 13.662 118.585 13.3883 119.26 12.7125C119.788 12.1907 120.299 11.7801 120.654 11.5834C120.965 11.4123 121.39 11.2155 121.606 11.1385C121.822 11.0616 122.229 10.9418 122.515 10.8819C122.8 10.822 123.372 10.7622 123.787 10.7622V10.7622ZM121.909 13.893C121.762 13.9871 121.468 14.2694 121.234 14.5089C121.009 14.7484 120.697 15.2018 120.541 15.5183L120.264 16.1C120.212 19.5559 120.238 20.5568 120.299 20.8476C120.351 21.1042 120.507 21.5491 120.645 21.8313C120.801 22.1307 121.113 22.5413 121.407 22.8236C121.684 23.0974 122.143 23.4224 122.428 23.5507C122.896 23.7732 123.034 23.7988 123.856 23.7988C124.705 23.7988 124.808 23.7817 125.328 23.5251C125.639 23.3797 126.063 23.0888 126.271 22.8835C126.479 22.6782 126.765 22.3446 126.912 22.1307C127.059 21.9169 127.249 21.5319 127.344 21.2753C127.492 20.8476 127.5 20.5739 127.474 18.4096L127.448 16.0145C126.981 15.082 126.652 14.6201 126.41 14.3806C126.141 14.1069 125.743 13.8246 125.371 13.6535C124.834 13.3969 124.67 13.3626 123.943 13.337C123.25 13.3199 123.051 13.3455 122.645 13.5081C122.385 13.6193 122.056 13.7904 121.909 13.893V13.893ZM14.6265 20.7706C14.938 20.7621 15.4227 20.8219 15.7084 20.8989C15.994 20.9674 16.4008 21.1213 16.6172 21.2411C16.8336 21.3523 17.223 21.6517 17.4827 21.9083C17.7424 22.165 18.054 22.567 18.3915 23.2342L28.4663 23.2856L28.7346 23.5422C28.8817 23.6791 29.0462 23.9528 29.0895 24.141C29.1414 24.3292 29.1587 24.6714 29.1327 24.9109C29.0981 25.1418 29.0029 25.4583 28.9164 25.5952C28.8212 25.7321 28.648 25.9032 28.5269 25.9545C28.3538 26.04 27.1334 26.0657 18.4348 26.0657L18.1751 26.5362C18.028 26.7928 17.7856 27.1435 17.6298 27.3146C17.4827 27.4857 17.1538 27.7509 16.9201 27.9049C16.6778 28.0674 16.3142 28.2556 16.0979 28.3326C15.8815 28.4096 15.4747 28.5037 15.1891 28.5464C14.8861 28.5892 14.436 28.5892 14.1071 28.5379C13.7955 28.4951 13.2935 28.3411 12.9819 28.1957C12.653 28.0417 12.2116 27.7338 11.9173 27.4429C11.6404 27.1777 11.3115 26.7586 10.948 26.0657H1.03763L0.760663 25.8262C0.613523 25.6979 0.440417 25.4669 0.371174 25.3129C0.310587 25.1675 0.258655 24.8681 0.258655 24.6542C0.258655 24.4404 0.310587 24.141 0.37983 23.987C0.440417 23.8416 0.604867 23.6192 0.96839 23.2856L10.948 23.2342L11.2509 22.7124C11.4153 22.4301 11.7442 22.0195 11.9866 21.8057C12.2203 21.6004 12.6098 21.3266 12.8521 21.2069C13.0858 21.0871 13.458 20.9417 13.6744 20.8818C13.8908 20.8219 14.3149 20.7706 14.6265 20.7706V20.7706ZM13.1204 23.3369C12.9906 23.4994 12.8175 23.7646 12.7569 23.9271C12.6877 24.0897 12.6357 24.4404 12.6357 24.697C12.6357 24.9708 12.705 25.3129 12.8002 25.5097C12.8867 25.6979 13.0945 25.9716 13.2503 26.1256C13.4147 26.2795 13.7003 26.4677 13.8908 26.5447C14.0812 26.6217 14.4534 26.6902 14.713 26.6902C15.0506 26.6987 15.3189 26.6388 15.6132 26.4849C15.8469 26.3736 16.1498 26.1427 16.2883 25.9802C16.4268 25.8176 16.5999 25.4669 16.6691 25.2103C16.7557 24.928 16.7903 24.6115 16.7557 24.4147C16.7297 24.2436 16.6345 23.9528 16.5393 23.7732C16.4527 23.6021 16.2104 23.3112 16.0026 23.1316C15.7949 22.9519 15.4833 22.7723 15.3189 22.7295C15.1544 22.6782 14.8428 22.644 14.6265 22.644C14.4014 22.644 14.0552 22.7295 13.8042 22.8407C13.5619 22.9519 13.2589 23.1744 13.1204 23.3369V23.3369ZM37.6842 2.71261H44.4353C49.6285 2.71261 51.247 2.73827 51.4028 2.82382C51.5154 2.87514 51.6798 3.02056 51.7664 3.14032C51.8529 3.26008 51.9741 3.53382 52.0347 3.75623C52.1299 4.10695 52.1299 4.21816 51.9914 4.62876C51.8962 4.93671 51.749 5.18479 51.3249 5.53551H45.8721V15.4413C45.8721 23.1316 45.8461 25.3899 45.7596 25.5524C45.7076 25.6722 45.4826 25.8518 45.2662 25.963C45.0152 26.0828 44.7209 26.1512 44.444 26.1512C44.167 26.1512 43.8727 26.0828 43.6217 25.963C43.4053 25.8518 43.1803 25.6722 43.1284 25.5524C43.0418 25.3899 43.0158 23.1316 43.0158 5.53551L40.2548 5.50985C37.6322 5.49274 37.4851 5.48419 37.3033 5.32165C37.1995 5.22756 37.035 5.00515 36.9485 4.82551C36.8533 4.64587 36.784 4.32936 36.784 4.0984C36.784 3.87599 36.8533 3.55948 36.9398 3.39695C37.0177 3.23442 37.2168 3.01201 37.3812 2.90936L37.6842 2.71261ZM78.2516 3.78189C78.4593 3.80755 78.7709 3.8931 78.944 3.98719C79.1085 4.07274 79.3595 4.28659 79.5066 4.45768C79.7316 4.73997 79.7663 4.84262 79.7663 5.32165C79.7663 5.74081 79.723 5.92045 79.5845 6.10009C79.4806 6.23696 79.2642 6.45081 79.1084 6.58768C78.9007 6.75021 78.6757 6.84431 78.3814 6.87853C78.1391 6.90419 77.8015 6.89564 77.6197 6.86997C77.4207 6.83576 77.161 6.69033 76.936 6.49359C76.7369 6.3225 76.5292 6.04877 76.4599 5.89479C76.3993 5.74081 76.3474 5.48419 76.3474 5.32165C76.3474 5.15057 76.3993 4.89394 76.4599 4.73997C76.5205 4.58599 76.7196 4.33792 76.8927 4.18394C77.0658 4.02996 77.3168 3.88454 77.4466 3.85888C77.5765 3.83322 77.7236 3.79045 77.7755 3.77334C77.8188 3.75623 78.0352 3.75623 78.2516 3.78189V3.78189ZM107.16 10.7622C107.61 10.7536 108.234 10.8049 108.545 10.8734C108.848 10.9332 109.359 11.0872 109.67 11.2155C109.973 11.3353 110.441 11.5577 110.7 11.7117C110.96 11.8657 111.462 12.2763 111.825 12.6355C112.293 13.0889 112.587 13.4738 112.847 13.9614C113.046 14.3378 113.262 14.8939 113.34 15.2018C113.409 15.5012 113.479 16.1428 113.479 16.6133C113.479 17.1265 113.427 17.6483 113.349 17.9135C113.271 18.1616 113.089 18.4952 112.933 18.6663C112.778 18.8459 112.449 19.0598 112.18 19.1624C111.713 19.3421 111.583 19.3506 103.525 19.3934V19.9665C103.525 20.283 103.56 20.7535 103.612 21.0187C103.655 21.2753 103.802 21.6945 103.932 21.9597C104.062 22.2163 104.347 22.6012 104.564 22.8151C104.78 23.0204 105.187 23.3198 105.472 23.4652C105.758 23.6192 106.243 23.8074 106.554 23.8844C106.901 23.9785 107.455 24.0298 108.026 24.0298C108.64 24.0383 109.099 23.987 109.454 23.8844C109.74 23.8074 110.38 23.5251 110.882 23.277C111.375 23.0204 111.886 22.8065 112.007 22.8065C112.12 22.8065 112.353 22.8921 112.518 23.0033C112.674 23.1059 112.881 23.3283 112.968 23.4994C113.055 23.662 113.132 23.9528 113.132 24.141C113.124 24.4404 113.072 24.5345 112.674 24.9109C112.423 25.1589 111.938 25.484 111.574 25.6636C111.211 25.8347 110.614 26.0571 110.233 26.1598C109.644 26.3223 109.307 26.348 107.983 26.348C106.58 26.3565 106.338 26.3309 105.602 26.1341C105.144 26.0144 104.468 25.7577 104.088 25.561C103.707 25.3728 103.127 24.9964 102.807 24.7398C102.486 24.4832 102.071 24.064 101.881 23.8159C101.699 23.5679 101.422 23.1145 101.283 22.8151C101.136 22.5071 100.954 22.0281 100.877 21.7458C100.764 21.3523 100.721 20.7278 100.686 19.0512C100.66 17.6227 100.677 16.6047 100.747 16.1C100.807 15.6723 100.954 15.0735 101.076 14.7741C101.197 14.4661 101.465 13.9614 101.664 13.662C101.863 13.3541 102.296 12.8494 102.625 12.5414C102.954 12.2335 103.456 11.8485 103.741 11.686C104.027 11.5149 104.468 11.2925 104.737 11.1899C104.996 11.0872 105.464 10.9503 105.775 10.8819C106.078 10.8135 106.702 10.7622 107.16 10.7622V10.7622ZM105.429 13.3541C105.256 13.4396 104.953 13.6535 104.737 13.816C104.529 13.9871 104.226 14.3207 104.07 14.5602C103.915 14.7912 103.733 15.2189 103.655 15.5012C103.586 15.7835 103.525 16.331 103.525 16.7159V17.4259C108.519 17.4259 110.103 17.3831 110.276 17.3404C110.441 17.2976 110.631 17.1693 110.692 17.0666C110.77 16.9298 110.796 16.6646 110.778 16.2283C110.744 15.7236 110.674 15.4499 110.458 14.9879C110.276 14.603 110.008 14.2266 109.722 13.9529C109.48 13.7219 109.047 13.414 108.762 13.2771C108.303 13.0547 108.13 13.0205 107.333 13.0034C106.745 12.9863 106.295 13.0205 106.078 13.0889C105.888 13.1488 105.594 13.2685 105.429 13.3541ZM53.584 10.8819C53.7484 10.899 53.9821 10.9931 54.1033 11.0787C54.2764 11.207 54.6918 12.2591 56.2411 16.4935C57.2971 19.3763 58.1799 21.78 58.1972 21.8313C58.2146 21.8741 58.3703 21.4721 58.5435 20.9331C58.7166 20.3857 59.4003 18.2129 60.0668 16.1C60.9583 13.2857 61.3391 12.1993 61.4776 12.0538C61.5901 11.9426 61.8325 11.84 62.0662 11.8143C62.3345 11.7716 62.5509 11.7972 62.7759 11.8999C62.9577 11.9683 63.1567 12.1223 63.2173 12.2249C63.2866 12.3361 63.9963 14.5688 64.8012 17.1864C65.6062 19.8125 66.2899 21.9083 66.3159 21.8485C66.3505 21.7886 67.2334 19.3934 68.2893 16.5277C69.6915 12.7125 70.2627 11.2497 70.4185 11.0958C70.6003 10.9161 70.7128 10.8819 71.1283 10.8905C71.4485 10.8905 71.7514 10.9589 71.9765 11.0701C72.1669 11.1642 72.4093 11.3353 72.5131 11.4465C72.617 11.5577 72.7381 11.7459 72.7814 11.8656C72.8507 12.0282 72.8247 12.2078 72.6689 12.6355C72.565 12.9349 71.3793 16.0572 70.029 19.5645C68.5663 23.3882 67.519 26.0144 67.4065 26.1341C67.2853 26.2539 67.0603 26.3565 66.8266 26.3908C66.6102 26.425 66.2813 26.425 66.0909 26.3908C65.9005 26.3565 65.6581 26.2453 65.5542 26.1341C65.4417 26.0058 64.8185 24.295 63.8232 21.3352C62.975 18.8117 62.2566 16.7416 62.2393 16.7416C62.2133 16.7416 61.5122 18.786 60.6813 21.2924C59.5821 24.5944 59.1061 25.9203 58.9503 26.0914C58.8118 26.2453 58.604 26.3565 58.3877 26.3993C58.1972 26.425 57.8857 26.425 57.6952 26.3908C57.5048 26.3565 57.2538 26.2368 57.15 26.1341C57.0201 26.0058 56.0767 23.6534 54.4408 19.3934C53.0646 15.792 51.8702 12.6526 51.801 12.4217C51.6971 12.0881 51.6798 11.9341 51.7577 11.7544C51.8096 11.6261 51.9914 11.4123 52.1732 11.284C52.3463 11.1556 52.6665 11.0017 52.8829 10.9418C53.0993 10.8905 53.4109 10.8562 53.584 10.8819V10.8819ZM78.0352 10.9247C78.2256 10.9247 78.5285 10.976 78.7103 11.0273C78.8921 11.0872 79.1431 11.2412 79.5066 11.6176L79.5239 18.4353C79.5499 25.1247 79.5412 25.253 79.3768 25.5268C79.2816 25.6808 79.0392 25.8775 78.8315 25.9716C78.6324 26.0657 78.2862 26.1427 78.0785 26.1512C77.8361 26.1512 77.5332 26.0742 77.2995 25.9545C77.0831 25.8518 76.8581 25.6636 76.7975 25.5524C76.7196 25.3814 76.6936 23.7732 76.6936 18.538C76.6936 13.3028 76.7196 11.686 76.7975 11.5235C76.8581 11.4037 77.0831 11.2241 77.2995 11.1129C77.5159 11.0102 77.8448 10.9247 78.0352 10.9247V10.9247Z" fill="#FFD500"></path>
</svg>
