<?xml version="1.0" encoding="UTF-8"?>
<svg xmlns="http://www.w3.org/2000/svg" width="77" height="27" viewBox="0 0 77 27" fill="none">
  <path d="M14.746 13.165C14.7892 13.165 14.8344 13.165 14.8776 13.1776H14.9392C15.239 13.1774 15.5328 13.0911 15.7871 12.9285C16.0414 12.766 16.2461 12.5336 16.378 12.2579C16.4023 12.2024 16.4149 12.1421 16.4149 12.0812C16.4149 12.0202 16.4023 11.96 16.378 11.9044C16.355 11.8484 16.3206 11.7982 16.277 11.7572C16.2333 11.7161 16.1815 11.6852 16.1251 11.6666C16.0834 11.6523 16.0397 11.6451 15.9957 11.6455C15.9167 11.6449 15.8392 11.6676 15.7725 11.7109C15.7058 11.7542 15.6527 11.8163 15.6195 11.8896C15.5564 12.0203 15.4589 12.1303 15.3379 12.2073C15.217 12.2843 15.0775 12.3251 14.9351 12.3253H14.9063C14.7412 12.3196 14.5827 12.2574 14.4562 12.1485C14.3794 12.0848 14.2837 12.05 14.1849 12.0496C14.0803 12.0494 13.9797 12.0901 13.9033 12.1632C13.8596 12.2042 13.8249 12.2544 13.8019 12.3103C13.7788 12.3662 13.7679 12.4266 13.7697 12.4873C13.7721 12.5482 13.7868 12.6079 13.813 12.6626C13.8392 12.7174 13.8763 12.7659 13.9218 12.8051C14.1567 13.0042 14.443 13.1293 14.746 13.165Z" fill="#2A48DF"></path>
  <path d="M24.3242 7.71709C23.4962 6.39993 22.4214 5.26387 21.162 4.37458C19.9025 3.48525 18.4835 2.86034 16.9867 2.53594L16.8613 2.51069C16.8299 2.5086 16.7983 2.5086 16.7668 2.51069L16.4873 1.006C16.4341 0.713152 16.279 0.449981 16.0508 0.265273C15.8225 0.080564 15.5366 -0.0131546 15.2461 0.00148969C14.9555 0.016134 14.68 0.138148 14.4706 0.344915C14.2611 0.551679 14.1321 0.829172 14.1072 1.12596L14.0044 2.29182C10.7591 2.43493 7.63295 3.91437 5.57764 6.51125C5.43041 6.71095 5.30563 6.92694 5.20561 7.15521C4.68769 7.28864 4.23263 7.60547 3.92103 8.04961C3.81805 8.03701 3.71439 8.0307 3.61068 8.03066C3.11541 8.02936 2.63063 8.17679 2.21637 8.45468C1.8021 8.7326 1.47652 9.12881 1.27994 9.59428L1.25733 9.6511C1.14779 9.9119 1.14214 10.2062 1.2416 10.4712C1.34106 10.7362 1.53774 10.9509 1.78966 11.0695L2.20073 11.2589L1.82255 12.57C1.47314 12.4795 1.09291 12.3869 0.881208 12.5279C0.669509 12.6689 0.585242 12.9803 0.48453 13.2876L0.412594 13.618C0.404432 13.6562 0.398258 13.6949 0.394098 13.7337C0.276943 14.7859 0.946979 15.6614 2.02191 15.8382L3.04958 16.015C3.04548 16.0675 3.04548 16.1203 3.04958 16.1728C3.35569 18.0164 4.07913 19.761 5.16197 21.267C6.24482 22.773 7.65698 23.9984 9.28544 24.8452C9.43751 24.9252 10.1774 25.2661 10.3727 25.3356C10.9374 25.565 11.5188 25.7486 12.1115 25.8848C12.9121 26.06 13.7284 26.1489 14.5471 26.15C17.4955 26.1486 20.3334 25.0008 22.4868 22.9386C22.7067 22.7282 23.3932 21.9811 23.5864 21.7412C25.1429 19.7847 26.0529 17.373 26.1855 14.8532C26.3181 12.3335 25.6664 9.83559 24.3242 7.71919V7.71709ZM15.1637 1.21434C15.1657 1.17863 15.1805 1.14494 15.2053 1.11974C15.2301 1.09453 15.2631 1.07958 15.298 1.07776C15.3329 1.07593 15.3672 1.08736 15.3944 1.10984C15.4215 1.13233 15.4397 1.1643 15.4452 1.19961L16.0618 4.48256C16.0618 4.48256 15.0753 4.28895 14.9581 3.65762L15.1637 1.21434ZM14.8595 4.73299C14.9308 4.80908 15.0078 4.87943 15.0897 4.94343C15.2748 5.08614 15.4837 5.1931 15.7063 5.25912C15.8365 5.29876 15.9699 5.32624 16.105 5.34117H16.1995L16.7175 7.1047C16.3967 7.10323 16.0811 7.02083 15.7988 6.86479C15.4701 6.71599 15.1827 6.48606 14.9622 6.19557C14.9108 6.12261 14.8635 6.04674 14.8204 5.96829L14.7629 5.86309L14.7156 5.76627L14.8595 4.73299ZM14.5429 7.60767L14.6231 6.87742C14.6683 6.94056 14.7197 7.0016 14.7731 7.0626C14.8266 7.12364 14.8841 7.18679 14.9437 7.24572C15.3583 7.66718 15.9003 7.93206 16.4811 7.99699C16.551 7.99699 16.6229 8.0012 16.6969 8.00962C16.7709 8.00962 16.847 8.00962 16.923 8.00962L17.5232 10.2172C17.5255 10.226 17.5247 10.2354 17.5211 10.2437C17.5175 10.252 17.5112 10.2588 17.5033 10.263C17.4954 10.2672 17.4863 10.2685 17.4776 10.2666C17.4689 10.2648 17.461 10.26 17.4553 10.253C17.325 10.084 17.1729 9.93397 17.0032 9.80682C16.9244 9.7498 16.8428 9.69712 16.7586 9.649L15.6097 8.99872L14.4628 8.35056L14.5429 7.60767ZM13.1638 10.3624L13.7804 9.24492L16.2941 10.6865C16.4462 10.7732 16.5796 10.8905 16.6863 11.0313C16.793 11.1721 16.8708 11.3336 16.915 11.506C16.9591 11.6785 16.9688 11.8582 16.9433 12.0345C16.9178 12.2109 16.8578 12.3801 16.7668 12.5321L16.5613 12.8898C16.3295 13.2744 15.9605 13.5512 15.5326 13.6617C15.1047 13.7721 14.6516 13.7074 14.2696 13.4812L13.9243 13.2707C13.4498 12.9855 13.1041 12.5204 12.9618 11.9762C12.8195 11.432 12.892 10.8523 13.1638 10.3624ZM9.57935 9.36699L10.1548 8.35056C10.2555 8.17248 10.4049 8.02853 10.5847 7.93652C10.7644 7.84449 10.9665 7.80845 11.1661 7.83285C11.3005 7.84816 11.4305 7.89111 11.5483 7.9591L13.6037 9.13971L9.57935 9.36699ZM14.1545 3.36719C14.1031 3.82176 14.0641 4.14375 14.062 4.14375L13.8914 5.26122L13.5975 7.86863L12.0766 6.99528C11.8354 6.85509 11.569 6.76631 11.2935 6.73433C10.8859 6.68416 10.4729 6.75703 10.1052 6.94394C9.73744 7.13088 9.4311 7.42376 9.22376 7.78655L8.58868 8.92506C8.58868 8.92506 7.49525 7.36566 6.39153 7.20573C7.35284 6.04735 8.53998 5.10751 9.87686 4.44649C11.2137 3.78547 12.6707 3.41784 14.1545 3.36719ZM9.76227 23.8877C8.28241 23.1149 6.99936 21.9988 6.01555 20.6283C5.0317 19.2577 4.37431 17.6707 4.09573 15.9939L5.30014 16.2233C6.46803 16.4455 7.5896 16.8727 8.61539 17.486C9.11278 17.7827 9.5526 18.05 9.63073 18.1173L10.0254 18.4267C10.6643 18.9258 11.3875 19.3003 12.1588 19.5315C12.1588 19.5315 10.8064 22.0232 9.76227 23.8877ZM21.7654 22.141C19.805 24.0112 17.2264 25.0531 14.5471 25.0578C13.2488 25.0568 11.9619 24.8106 10.7509 24.3317L13.3323 19.7693C14.1894 19.8829 14.8122 19.6935 15.2664 19.138C15.344 19.0671 15.3914 18.9681 15.3987 18.862C15.406 18.7559 15.3726 18.651 15.3055 18.5698C15.0424 18.2036 14.6313 18.5508 14.6313 18.5508C14.2079 18.8454 13.9284 18.8917 13.3159 18.7613C12.3669 18.5638 11.4733 18.1502 10.7016 17.5512L10.2638 17.2061C9.85413 16.8851 9.41654 16.6033 8.95657 16.3643L8.79009 16.278C8.06006 15.9165 7.28361 15.6629 6.48403 15.5246L2.19662 14.7817C1.99108 14.7481 1.37449 14.5713 1.44642 13.86L1.51836 13.5275C2.52161 13.8676 3.55378 14.1107 4.60134 14.2535L4.95897 14.3083C5.16449 14.3398 5.37004 14.3672 5.57556 14.3903C6.19602 14.4692 6.82071 14.5079 7.44591 14.5061C7.5758 14.502 7.70447 14.4793 7.82821 14.4387L8.10774 14.3503C8.41255 14.2585 8.68009 14.068 8.87025 13.8074C9.01343 13.6088 9.10558 13.3766 9.13828 13.1321C9.17095 12.8876 9.14309 12.6385 9.05729 12.4079C8.96291 12.1599 8.8058 11.9422 8.6021 11.7768C8.39839 11.6116 8.15542 11.5047 7.89807 11.4672C7.22598 11.4441 3.5264 10.8359 2.19867 10.2635L2.27061 10.0362C2.41573 9.68864 2.68282 9.40938 3.01917 9.25353C3.35553 9.09768 3.73671 9.0766 4.08751 9.19444L4.24987 9.24913C4.29628 9.26058 4.34502 9.25653 4.38903 9.23758C4.43302 9.21867 4.46996 9.18586 4.49447 9.14392L4.57463 8.99031C4.67714 8.7945 4.81952 8.6235 4.99208 8.48886C5.16468 8.35422 5.36344 8.25906 5.57502 8.20979C5.7866 8.16052 6.00602 8.15829 6.21849 8.20325C6.43099 8.24825 6.63157 8.33936 6.80672 8.4705C6.89067 8.53268 6.96844 8.60319 7.03895 8.68094L7.08829 8.73356C7.10805 8.75122 7.12596 8.771 7.14171 8.79249L8.12211 9.98359C8.2018 10.0798 8.30198 10.156 8.41494 10.2063C8.52787 10.2567 8.65061 10.2798 8.77364 10.274L12.315 10.1141C11.9951 10.7967 11.9374 11.5775 12.1532 12.3017C12.3691 13.0259 12.8427 13.6406 13.4803 14.0241L13.8297 14.2346C14.1306 14.4141 14.4643 14.528 14.8101 14.5692C15.2924 14.6258 15.7804 14.5407 16.2172 14.3238C16.6539 14.1069 17.0214 13.7672 17.2765 13.3444L20.004 8.68094L19.6525 14.1525L21.751 22.1494L21.7654 22.141ZM2.85021 12.8372L3.21606 11.5009C3.74015 11.6272 4.39582 11.7766 5.06584 11.9218L5.42965 11.9955C6.74093 12.2375 7.78298 12.3301 7.78298 12.3301C7.88622 12.3464 7.9834 12.3905 8.06461 12.4578C8.14583 12.5251 8.2082 12.6131 8.24543 12.7131C8.30108 12.86 8.30108 13.0229 8.24543 13.1697C8.20228 13.2918 8.09333 13.5675 7.5569 13.5906C6.80465 13.6496 4.71644 13.3444 2.85021 12.8372ZM22.6122 21.255C22.6122 21.2045 20.6616 14.041 20.6616 14.0473L20.9802 7.81601C20.9568 7.64202 20.8808 7.47989 20.7628 7.35233C20.6449 7.22477 20.4909 7.13818 20.3225 7.1047L20.2547 7.09418C20.0972 7.07606 19.9379 7.10499 19.796 7.17741C19.6542 7.24983 19.5358 7.36272 19.4552 7.50244L18.2878 9.51429L16.6435 3.57553L16.7524 3.59658C18.526 3.98382 20.1727 4.83073 21.535 6.05628C22.8973 7.28182 23.9296 8.84492 24.5329 10.5959C25.1362 12.3469 25.2904 14.2272 24.9807 16.0566C24.671 17.8862 23.9079 19.6036 22.7643 21.0446" fill="#2A48DF"></path>
  <path d="M34.0291 8.23212L36.6143 2.10652L34.5808 2.10184L33.3186 5.26751L32.066 2.09717H30.0371L32.5941 8.23212H34.0291Z" fill="#2A48DF"></path>
  <path d="M41.0743 6.58237L39.3075 6.57772V5.96982L40.9809 5.97451V4.33322L39.312 4.32853V3.75339H41.0791L41.0839 2.11678L37.4471 2.10742L37.4375 8.23301H41.0743V6.58237Z" fill="#2A48DF"></path>
  <path d="M44.3977 6.47888L45.5101 8.23705H47.8474L45.9777 5.80086C46.277 5.69651 46.5409 5.51021 46.7395 5.26309C46.9865 4.92292 47.1118 4.50946 47.0949 4.08944C47.0968 3.83304 47.0541 3.5783 46.9687 3.33657C46.8807 3.10474 46.7491 2.892 46.5808 2.70999C46.3959 2.5191 46.1705 2.3721 45.9216 2.2798C45.6332 2.17168 45.3272 2.11931 45.0193 2.12549H42.5137V8.24174H44.3837L44.3977 6.47888ZM44.3977 3.64521H44.4863C44.6843 3.62907 44.8819 3.68013 45.0473 3.79015C45.0989 3.83789 45.1401 3.89574 45.1681 3.96012C45.1962 4.02448 45.2108 4.094 45.2108 4.16425C45.2108 4.23451 45.1962 4.30399 45.1681 4.36838C45.1401 4.43274 45.0989 4.49062 45.0473 4.53832C44.88 4.64321 44.6836 4.69232 44.4863 4.67861H44.3929L44.3977 3.64521Z" fill="#2A48DF"></path>
  <path d="M51.6463 8.23707L51.6511 5.35662L53.9275 2.13484L51.6836 2.13017L50.7255 3.54701L49.767 2.12549H47.5234L49.7858 5.35662L49.781 8.23707H51.6463Z" fill="#2A48DF"></path>
  <path d="M43.5652 14.3721C43.8986 13.5618 43.8986 12.6527 43.5652 11.8424C43.4001 11.454 43.1585 11.1029 42.8551 10.8097C42.5513 10.5165 42.1921 10.2873 41.7985 10.1356C41.3694 9.9683 40.9124 9.88421 40.4521 9.88781C39.9922 9.88417 39.5354 9.96664 39.1058 10.131C38.5094 10.3626 37.9978 10.7703 37.6389 11.2998C37.2797 11.8294 37.0904 12.4557 37.0958 13.0956C37.0933 13.5302 37.1777 13.961 37.3435 14.3628C37.506 14.7442 37.7409 15.0904 38.0355 15.3821C38.3389 15.6806 38.7 15.9145 39.0965 16.0695C39.5275 16.2355 39.9855 16.3195 40.4473 16.3173C40.906 16.3206 41.3608 16.2381 41.7889 16.0742C42.187 15.9187 42.5507 15.6868 42.8595 15.3915C43.1588 15.1009 43.3988 14.7546 43.5652 14.3721ZM41.7704 13.6567C41.6984 13.8226 41.5935 13.9722 41.4619 14.0962C41.3267 14.224 41.168 14.3241 40.9943 14.3908C40.8177 14.4559 40.6312 14.4907 40.4429 14.4937C40.2551 14.4937 40.0693 14.4572 39.8959 14.3862C39.7216 14.3232 39.5622 14.2244 39.4283 14.0962C39.2941 13.9635 39.189 13.8043 39.1198 13.6286C39.0436 13.4548 39.0054 13.2666 39.0076 13.0769C39.0051 12.887 39.0433 12.6988 39.1198 12.5251C39.1912 12.3506 39.2961 12.1918 39.4283 12.0575C39.5628 11.9301 39.7219 11.8315 39.8959 11.7676C40.0696 11.698 40.2555 11.6631 40.4429 11.6647C40.6284 11.6612 40.8126 11.6945 40.985 11.7627C41.1575 11.8309 41.3149 11.9327 41.4478 12.0622C41.6518 12.2572 41.7911 12.5104 41.8463 12.7873C41.9014 13.0643 41.8699 13.3515 41.7564 13.6099L41.7704 13.6567Z" fill="#2A48DF"></path>
  <path d="M50.9722 14.3813C51.1401 13.9816 51.2259 13.5522 51.2246 13.1187C51.2281 12.685 51.1424 12.2552 50.9722 11.8562C50.8118 11.4713 50.5747 11.1229 50.2757 10.8322C49.9697 10.5355 49.6073 10.3034 49.2099 10.1494C48.7812 9.98212 48.3241 9.89803 47.8638 9.90163C47.4052 9.89608 46.9497 9.97864 46.522 10.1448C46.1261 10.2965 45.765 10.5272 45.4609 10.8228C45.1651 11.116 44.9286 11.4638 44.7644 11.8469C44.5104 12.4392 44.44 13.0943 44.5627 13.7271C44.6851 14.3599 44.9949 14.9413 45.4516 15.396C45.7567 15.6915 46.1175 15.9235 46.5127 16.0787C46.943 16.2468 47.4017 16.3309 47.8638 16.3265C48.3222 16.3316 48.7777 16.249 49.2054 16.0833C49.6006 15.9347 49.9615 15.7071 50.2662 15.4145C50.5706 15.1219 50.8125 14.7703 50.977 14.3813H50.9722ZM49.1726 13.6705C49.1005 13.8364 48.9957 13.986 48.864 14.1101C48.7283 14.2368 48.5695 14.3367 48.3968 14.4047C48.2218 14.4704 48.0366 14.5037 47.8498 14.5028C47.6605 14.509 47.4724 14.4739 47.2981 14.4C47.1247 14.3351 46.966 14.2366 46.8305 14.1101C46.7005 13.975 46.5975 13.8163 46.5267 13.6425C46.4515 13.4674 46.4126 13.2789 46.4126 13.0884C46.4126 12.8978 46.4515 12.7093 46.5267 12.5342C46.6753 12.1994 46.9488 11.9359 47.2888 11.8001C47.4632 11.7323 47.6487 11.6974 47.8358 11.6972C48.0248 11.6967 48.2122 11.7332 48.3872 11.8048C48.5593 11.8724 48.7177 11.9707 48.8548 12.0947C48.9896 12.2278 49.0961 12.3869 49.1678 12.5623C49.243 12.7373 49.2819 12.9259 49.2819 13.1164C49.2819 13.3069 49.243 13.4955 49.1678 13.6705H49.1726Z" fill="#2A48DF"></path>
  <path d="M56.691 15.2511C56.9638 14.9684 57.1812 14.6368 57.3313 14.2738C57.4881 13.904 57.5691 13.5065 57.5691 13.1048C57.5691 12.7031 57.4881 12.3055 57.3313 11.9358C57.1809 11.5756 56.9638 11.2471 56.691 10.9678C56.4245 10.6877 56.1074 10.4608 55.7561 10.2992C55.3883 10.1297 54.988 10.042 54.5829 10.042H52.1895V16.1536H54.5829C54.9905 16.1544 55.3937 16.0683 55.7654 15.9011C56.1102 15.7412 56.4236 15.5211 56.691 15.2511ZM55.5317 13.694C55.4696 13.8608 55.3724 14.0123 55.2465 14.1382C55.1209 14.2641 54.9692 14.3614 54.8025 14.4234C54.6055 14.4978 54.3961 14.5343 54.1854 14.531H54.0311V11.7254H54.1809C54.3913 11.7228 54.6004 11.7593 54.7977 11.8329C54.9733 11.8934 55.133 11.9925 55.2653 12.1228C55.3905 12.2572 55.4862 12.4165 55.5458 12.5904C55.6165 12.7721 55.6516 12.9659 55.6487 13.1609C55.6407 13.347 55.6012 13.5305 55.5317 13.7033V13.694Z" fill="#2A48DF"></path>
  <path d="M33.3194 20.872L32.0667 17.7063L30.0332 17.7017L32.5949 23.8132H34.0298L36.6151 17.711L34.5816 17.7063L33.3194 20.872Z" fill="#2A48DF"></path>
  <path d="M37.4043 23.8225L41.0411 23.8272L41.0459 22.1859H39.2743L39.2788 21.5734L40.9477 21.578L40.9525 19.9367L39.2788 19.9321V19.3569H41.0506V17.7203L37.4139 17.7109L37.4043 23.8225Z" fill="#2A48DF"></path>
  <path d="M46.5005 20.8719L44.037 17.7202H42.2654L42.2559 23.8271L44.1259 23.8318L44.1304 20.6848L46.5939 23.8365H48.3562L48.3657 17.7296L46.5053 17.7249L46.5005 20.8719Z" fill="#2A48DF"></path>
  <path d="M49.3535 19.3708H50.5733L50.5689 23.8411L52.4338 23.8458L52.4434 19.3754L53.6679 19.3801V17.7388L49.3535 17.7295V19.3708Z" fill="#2A48DF"></path>
  <path d="M58.2627 21.0496C58.2627 21.2132 58.2627 21.3816 58.2627 21.5499C58.256 21.6905 58.2228 21.8286 58.1645 21.9567C58.1132 22.0671 58.0322 22.161 57.9309 22.2279C57.7868 22.3026 57.6252 22.3365 57.4633 22.3262C57.3007 22.3373 57.1385 22.3016 56.996 22.2233C56.8937 22.1605 56.8134 22.0673 56.7668 21.9567C56.7079 21.8272 56.6747 21.6875 56.6687 21.5453C56.6687 21.3769 56.6687 21.2086 56.6687 21.0496V17.7437H54.7989V21.2553C54.7677 21.6299 54.8107 22.0068 54.9255 22.3647C55.0399 22.7226 55.2241 23.0543 55.4673 23.3408C55.7421 23.5821 56.0621 23.7663 56.4089 23.8827C56.7557 23.9991 57.1219 24.0454 57.4865 24.0189C57.8486 24.0461 58.2123 24.001 58.5565 23.8862C58.9008 23.7714 59.2189 23.5892 59.492 23.3502C59.7352 23.0636 59.9195 22.7319 60.0339 22.3741C60.1486 22.0162 60.1917 21.6392 60.1604 21.2647V17.753H58.2907L58.2627 21.0496Z" fill="#2A48DF"></path>
  <path d="M65.6555 20.8949C65.9051 20.5541 66.0319 20.1388 66.0154 19.7166C66.0176 19.4613 65.9733 19.2078 65.8847 18.9684C65.8015 18.7343 65.6692 18.5207 65.4968 18.3418C65.3129 18.152 65.0894 18.0051 64.8421 17.9116C64.5527 17.8023 64.2448 17.7484 63.9353 17.7527H61.4297V23.8642H63.2997V22.1154L64.4261 23.8689H66.7634L64.8937 21.428C65.1933 21.3268 65.4579 21.1418 65.6555 20.8949ZM63.9448 20.1748C63.7785 20.2788 63.584 20.3278 63.3883 20.3151H63.2949V19.2771H63.3883C63.5856 19.2634 63.782 19.3125 63.9493 19.4173C64.0029 19.4642 64.0452 19.5227 64.0727 19.5883C64.1001 19.6539 64.1125 19.725 64.1084 19.7961C64.1144 19.8678 64.1029 19.94 64.0743 20.0061C64.0456 20.0722 64.0013 20.1302 63.9448 20.1748Z" fill="#2A48DF"></path>
  <path d="M67.5078 23.8694L71.1446 23.874L71.1491 22.2374L69.3775 22.2328V21.6249H71.0509L71.0557 19.9836H69.3823V19.4038L71.1538 19.4085V17.7672L67.5171 17.7578L67.5078 23.8694Z" fill="#2A48DF"></path>
  <path d="M75.3457 20.0163L74.9715 19.8995C74.8676 19.87 74.7659 19.8325 74.6677 19.7872C74.5989 19.7561 74.537 19.7116 74.4854 19.6563C74.4704 19.6401 74.4589 19.6209 74.4516 19.6C74.4443 19.579 74.4414 19.5568 74.4433 19.5347C74.4417 19.494 74.451 19.4536 74.4698 19.4176C74.4886 19.3815 74.5166 19.3509 74.5511 19.329C74.6684 19.2675 74.7994 19.2354 74.932 19.2354C75.0645 19.2354 75.1952 19.2675 75.3128 19.329C75.4693 19.3955 75.6156 19.4836 75.7476 19.5908L75.9251 19.7405L76.7105 18.202L76.547 18.1132C76.2509 17.956 75.9369 17.8351 75.6121 17.7532C75.3087 17.6642 74.9935 17.6216 74.677 17.6269C74.3764 17.6244 74.0777 17.6734 73.7937 17.7718C73.5368 17.8656 73.3013 18.0104 73.1018 18.1974C72.9105 18.3838 72.7607 18.6085 72.6625 18.8567C72.5567 19.1245 72.5041 19.4105 72.5083 19.6984C72.5009 19.968 72.5519 20.2359 72.6578 20.484C72.7512 20.6837 72.8866 20.8608 73.0549 21.003C73.2181 21.1413 73.403 21.2519 73.6019 21.3303C73.789 21.4051 73.9805 21.4753 74.1769 21.5361C74.3732 21.5969 74.4669 21.639 74.5791 21.6857C74.662 21.7155 74.7407 21.7564 74.8127 21.8073C74.8526 21.8343 74.8851 21.8714 74.9061 21.9148C74.9262 21.9588 74.9358 22.0068 74.9342 22.0551C74.9332 22.1016 74.9221 22.1473 74.902 22.1893C74.8819 22.2312 74.8529 22.2684 74.8172 22.2983C74.6986 22.385 74.5527 22.4265 74.406 22.4152C74.2084 22.4047 74.0137 22.3604 73.831 22.2842C73.6082 22.1795 73.4033 22.0407 73.2232 21.8727L73.0409 21.7138L72.209 23.2756L72.3492 23.3691C72.966 23.8129 73.7067 24.0517 74.4669 24.0518C74.8041 24.057 75.1404 24.008 75.4623 23.9068C75.7444 23.8142 76.0048 23.6664 76.2292 23.4719C76.4332 23.2835 76.5929 23.0519 76.6965 22.7939C76.8077 22.5176 76.8632 22.222 76.86 21.9242C76.8788 21.4973 76.7443 21.0779 76.4817 20.7411C76.1769 20.3994 75.7839 20.1486 75.3457 20.0163Z" fill="#2A48DF"></path>
  <path d="M30.9152 15.406C31.2035 15.6933 31.547 15.9192 31.925 16.07C32.3346 16.2293 32.771 16.3087 33.2105 16.3037C33.5372 16.3053 33.8627 16.2629 34.1782 16.1775C34.4823 16.0973 34.772 15.9711 35.0382 15.8034C35.3046 15.6397 35.5389 15.429 35.7302 15.1815C35.9329 14.9281 36.091 14.6419 36.1974 14.3352C36.2848 14.0989 36.3399 13.852 36.3613 13.601C36.3906 13.3199 36.4046 13.0373 36.4033 12.7547V12.5629H33.0748V13.8956H34.3465C34.2907 14.1242 34.1546 14.3251 33.9631 14.4614C33.8703 14.5228 33.7674 14.5671 33.6593 14.5923C33.3476 14.6635 33.0218 14.6391 32.7245 14.5222C32.5696 14.454 32.4322 14.3517 32.3222 14.2229C32.2078 14.0856 32.1217 13.9266 32.0698 13.7553C32.0118 13.5532 31.9837 13.3437 31.9856 13.1334C31.9821 12.9063 32.0172 12.6803 32.0886 12.4647C32.1466 12.2837 32.2384 12.1154 32.3598 11.9691C32.4679 11.8375 32.6056 11.7333 32.7618 11.6651C32.9259 11.5901 33.1047 11.5533 33.2851 11.5576C33.5022 11.5524 33.7154 11.6127 33.8977 11.7306C34.0102 11.8086 34.1059 11.9088 34.1782 12.0252L35.9169 11.263C35.6801 10.8676 35.3493 10.5368 34.954 10.2997C34.4434 10.019 33.8681 9.8771 33.2851 9.88823C32.8312 9.87493 32.3786 9.94955 31.9531 10.108C31.5699 10.2524 31.2211 10.4754 30.9293 10.7627C30.6388 11.051 30.4139 11.3987 30.2702 11.782C29.9594 12.6208 29.9594 13.5432 30.2702 14.3819C30.414 14.7632 30.6335 15.1116 30.9152 15.406Z" fill="#2A48DF"></path>
</svg>
